<?xml version="1.0" standalone="no"?>
<!DOCTYPE svg PUBLIC "-//W3C//DTD SVG 1.1//EN" "http://www.w3.org/Graphics/SVG/1.1/DTD/svg11.dtd" >
<svg xmlns="http://www.w3.org/2000/svg">
<metadata>Generated by IcoMoon</metadata>
<defs>
<font id="icomoon" horiz-adv-x="1024">
<font-face units-per-em="1024" ascent="960" descent="-64" />
<missing-glyph horiz-adv-x="1024" />
<glyph unicode="&#x20;" horiz-adv-x="512" d="" />
<glyph unicode="&#xe900;" glyph-name="arrow-left" d="M716.8-64c-30.72 0-51.2 10.24-71.68 30.72l-409.6 409.6c-40.96 40.96-40.96 102.4 0 143.36l409.6 409.6c40.96 40.96 102.4 40.96 143.36 0s40.96-102.4 0-143.36l-337.92-337.92 337.92-337.92c40.96-40.96 40.96-102.4 0-143.36-20.48-20.48-40.96-30.72-71.68-30.72z" />
<glyph unicode="&#xe901;" glyph-name="arrow-right" d="M307.2-64c30.72 0 51.2 10.24 71.68 30.72l409.6 409.6c40.96 40.96 40.96 102.4 0 143.36l-409.6 409.6c-40.96 40.96-102.4 40.96-143.36 0s-40.96-102.4 0-143.36l337.92-337.92-337.92-337.92c-40.96-40.96-40.96-102.4 0-143.36 20.48-20.48 40.96-30.72 71.68-30.72z" />
<glyph unicode="&#xe902;" glyph-name="whatsapp" d="M1024 452.267c0-281.6-234.667-507.733-512-507.733v0c-85.333 0-166.4 21.333-243.2 59.733l-268.8-68.267 72.533 264.533c-42.667 76.8-68.267 166.4-68.267 251.733 0 281.6 226.133 507.733 507.733 507.733 136.533 0 264.533-51.2 358.4-149.333 93.867-93.867 153.6-221.867 153.6-358.4zM938.667 452.267c0 110.933-46.933 217.6-128 298.667s-187.733 123.733-298.667 123.733c-234.667 0-422.4-187.733-422.4-422.4 0-81.067 21.333-157.867 64-226.133l8.533-17.067-42.667-153.6 157.867 42.667 21.333-8.533c64-38.4 140.8-59.733 213.333-59.733 230.4 0 426.667 187.733 426.667 422.4zM768 332.8c4.267-4.267 4.267-29.867-8.533-59.733-8.533-29.867-59.733-55.467-85.333-59.733-38.4-4.267-72.533-4.267-153.6 29.867-128 55.467-209.067 183.467-217.6 192-4.267 8.533-51.2 68.267-51.2 128s34.133 93.867 42.667 106.667c12.8 12.8 25.6 17.067 34.133 17.067s17.067 0 25.6 0 17.067 4.267 29.867-21.333 38.4-89.6 38.4-93.867c4.267-8.533 4.267-12.8 0-21.333-25.6-46.933-51.2-46.933-38.4-68.267 51.2-85.333 98.133-115.2 170.667-149.333 12.8-8.533 21.333-4.267 25.6 4.267 8.533 8.533 29.867 38.4 38.4 51.2s17.067 12.8 29.867 8.533 72.533-34.133 85.333-42.667c21.333-12.8 29.867-17.067 34.133-21.333z" />
<glyph unicode="&#xe903;" glyph-name="heart-outlined" d="M512-17.92l-424.96 424.96c-112.64 112.64-112.64 302.080 0 414.72 56.32 56.32 128 87.040 209.92 87.040 76.8 0 153.6-30.72 209.92-87.040l5.12-5.12 10.24 10.24c112.64 112.64 302.080 112.64 414.72 0v0c112.64-112.64 112.64-302.080 0-414.72l-424.96-430.080zM291.84 811.52c-51.2 0-97.28-20.48-133.12-56.32-76.8-76.8-76.8-194.56 0-271.36l353.28-353.28 353.28 353.28c35.84 35.84 56.32 81.92 56.32 133.12s-20.48 102.4-56.32 138.24v0c-76.8 76.8-194.56 76.8-271.36 0l-81.92-87.040-81.92 87.040c-35.84 35.84-87.040 56.32-138.24 56.32z" />
<glyph unicode="&#xe904;" glyph-name="heart-full" d="M936.96 826.88c-112.64 112.64-302.080 112.64-414.72 0l-10.24-10.24-10.24 10.24c-56.32 56.32-128 87.040-209.92 87.040-76.8 0-153.6-30.72-209.92-87.040-112.64-112.64-112.64-302.080 0-414.72l424.96-424.96 424.96 424.96c122.88 112.64 122.88 296.96 5.12 414.72z" />
<glyph unicode="&#xe905;" glyph-name="plus" d="M512-64c-38.4 0-64 25.6-64 64v896c0 38.4 25.6 64 64 64s64-25.6 64-64v-896c0-38.4-25.6-64-64-64zM960 384h-896c-38.4 0-64 25.6-64 64s25.6 64 64 64h896c38.4 0 64-25.6 64-64s-25.6-64-64-64z" />
<glyph unicode="&#xe906;" glyph-name="cross" d="M876.8 83.2c-25.6-25.6-64-25.6-89.6 0l-640 633.6c-19.2 25.6-19.2 70.4 0 96 25.6 25.6 64 25.6 89.6 0l633.6-633.6c25.6-25.6 25.6-70.4 6.4-96zM876.8 716.8l-633.6-633.6c-25.6-25.6-64-25.6-89.6 0s-25.6 64 0 89.6l633.6 633.6c25.6 25.6 64 25.6 89.6 0 19.2-19.2 19.2-64 0-89.6z" />
<glyph unicode="&#xe907;" glyph-name="article" d="M230.4 928c-64 0-121.6-51.2-121.6-121.6v-761.6h19.2c19.2-44.8 51.2-76.8 102.4-76.8h678.4v76.8h-678.4c-19.2 6.4-38.4 19.2-38.4 44.8s19.2 38.4 38.4 38.4h678.4v800h-678.4zM230.4 844.8h601.6v-640h-601.6c-12.8 0-25.6 0-38.4-6.4v608c0 25.6 19.2 38.4 38.4 38.4zM268.8 691.2v-76.8h480v76.8h-480z" />
<glyph unicode="&#xe908;" glyph-name="professional-info" d="M512 960c-70.4 0-134.4-38.4-172.8-96-64 12.8-140.8 0-192-51.2v0 0c-51.2-51.2-64-121.6-51.2-192-57.6-38.4-96-102.4-96-172.8s38.4-134.4 96-172.8c-12.8-64 0-140.8 51.2-192s121.6-64 192-51.2c38.4-57.6 102.4-96 172.8-96s134.4 38.4 172.8 96c64-12.8 140.8 0 192 51.2s64 121.6 51.2 192c57.6 38.4 96 102.4 96 172.8s-38.4 134.4-96 172.8c12.8 64 0 140.8-51.2 192v0c-51.2 51.2-121.6 64-192 51.2-38.4 57.6-102.4 96-172.8 96zM512 883.2c51.2 0 96-32 121.6-76.8l12.8-32 32 12.8c44.8 12.8 102.4 6.4 140.8-32s51.2-89.6 32-140.8l-12.8-32 32-12.8c44.8-25.6 76.8-70.4 76.8-121.6s-32-96-76.8-121.6l-32-12.8 12.8-32c12.8-44.8 6.4-102.4-32-140.8s-89.6-51.2-140.8-32l-32 12.8-12.8-32c-25.6-44.8-70.4-76.8-121.6-76.8s-96 32-121.6 76.8l-12.8 32-32-12.8c-44.8-12.8-102.4-6.4-140.8 32s-51.2 89.6-32 140.8l12.8 32-32 12.8c-44.8 25.6-76.8 70.4-76.8 121.6s32 96 76.8 121.6l32 12.8-12.8 32c-12.8 51.2-6.4 102.4 32 140.8s89.6 51.2 140.8 32l32-12.8 12.8 32c25.6 44.8 70.4 76.8 121.6 76.8zM723.2 633.6l-288-288-128 128-57.6-51.2 185.6-185.6 339.2 339.2-51.2 57.6z" />
<glyph unicode="&#xe909;" glyph-name="tip" d="M512 960c-198.4 0-364.8-166.4-364.8-364.8 0-140.8 64-217.6 121.6-268.8 25.6-25.6 51.2-51.2 70.4-70.4s25.6-38.4 25.6-64v-76.8c0-44.8 32-89.6 70.4-102.4 0 0 0-6.4 0-6.4 6.4-38.4 38.4-70.4 76.8-70.4s70.4 32 70.4 70.4c0 0 0 6.4 0 6.4 44.8 12.8 70.4 57.6 70.4 102.4v76.8c0 25.6 6.4 44.8 25.6 64s44.8 38.4 70.4 70.4c57.6 51.2 121.6 128 121.6 268.8 6.4 198.4-160 364.8-358.4 364.8zM512 889.6c160 0 294.4-128 294.4-294.4 0-115.2-44.8-166.4-96-217.6-25.6-25.6-57.6-44.8-76.8-76.8-19.2-19.2-19.2-51.2-32-76.8h-179.2c-6.4 25.6-12.8 57.6-32 76.8-19.2 32-44.8 51.2-70.4 76.8-57.6 51.2-102.4 96-102.4 217.6 0 160 134.4 294.4 294.4 294.4zM38.4 812.8c-19.2 0-38.4-12.8-38.4-38.4s19.2-38.4 38.4-38.4 38.4 19.2 38.4 38.4-19.2 38.4-38.4 38.4zM985.6 812.8c-19.2 0-38.4-19.2-38.4-38.4s19.2-38.4 38.4-38.4 38.4 19.2 38.4 38.4-19.2 38.4-38.4 38.4zM38.4 665.6c-19.2 0-38.4-12.8-38.4-32s19.2-38.4 38.4-38.4 38.4 19.2 38.4 38.4c-6.4 19.2-19.2 32-38.4 32zM985.6 665.6c-19.2 0-38.4-19.2-38.4-38.4s19.2-38.4 38.4-38.4 38.4 19.2 38.4 44.8c0 19.2-19.2 32-38.4 32zM38.4 518.4c-19.2 0-38.4-12.8-38.4-32s19.2-38.4 38.4-38.4 38.4 19.2 38.4 38.4c-6.4 19.2-19.2 32-38.4 32zM985.6 518.4c-19.2 0-38.4-19.2-38.4-38.4s19.2-38.4 38.4-38.4 38.4 25.6 38.4 44.8c0 19.2-19.2 32-38.4 32zM441.6 153.6h147.2v-38.4c0-19.2-12.8-38.4-38.4-38.4h-76.8c-19.2 0-38.4 12.8-38.4 38.4v38.4z" />
<glyph unicode="&#xe90a;" glyph-name="recipies" d="M966.4 960l-153.6-153.6-57.6 57.6c-6.4 6.4-19.2 12.8-32 12.8-6.4 0-12.8 0-19.2-6.4l-166.4-83.2c-19.2-12.8-32-38.4-19.2-57.6 0-6.4 6.4-6.4 6.4-12.8l96-96-108.8-108.8-96 96c-6.4 6.4-19.2 12.8-32 12.8-6.4 0-12.8 0-19.2-6.4l-172.8-83.2c-19.2-12.8-25.6-38.4-19.2-57.6 0-6.4 6.4-6.4 6.4-12.8l147.2-140.8-108.8-108.8c-32-32-57.6-83.2-44.8-134.4 6.4-12.8 0-32-12.8-38.4-19.2-19.2-44.8-19.2-57.6 0 0 0 0 0 0 0-19.2 19.2-19.2 44.8 0 57.6l-57.6 57.6c-51.2-51.2-51.2-134.4 0-179.2 51.2-51.2 134.4-51.2 179.2 0 0 0 0 0 0 0 32 32 44.8 83.2 32 121.6-6.4 12.8 6.4 38.4 19.2 51.2l108.8 115.2 140.8-140.8c19.2-19.2 44.8-19.2 57.6 0 6.4 0 6.4 6.4 12.8 6.4l83.2 172.8c6.4 19.2 6.4 38.4-6.4 51.2l-96 96 108.8 108.8 96-96c19.2-19.2 44.8-19.2 57.6 0 6.4 6.4 6.4 6.4 6.4 12.8l83.2 172.8c6.4 19.2 6.4 38.4-6.4 51.2l-57.6 57.6 160 147.2-57.6 57.6zM716.8 780.8l128-128-44.8-89.6-172.8 172.8 89.6 44.8zM377.6 524.8l211.2-211.2-44.8-89.6-256 256 89.6 44.8z" />
<glyph unicode="&#xe90b;" glyph-name="all-articles" d="M44.8 960c-25.6 0-44.8-19.2-44.8-44.8v-940.8c0-19.2 19.2-38.4 44.8-38.4h940.8c25.6 0 44.8 19.2 44.8 44.8v934.4c-6.4 25.6-25.6 44.8-51.2 44.8h-339.2c-25.6 0-44.8-19.2-44.8-44.8v-128h-166.4v128c0 25.6-19.2 44.8-44.8 44.8h-339.2zM83.2 876.8h256v-83.2h-166.4v-89.6h172.8v-512h-172.8v-83.2h172.8v-83.2h-256v851.2zM684.8 876.8h256v-83.2h-172.8v-89.6h172.8v-512h-172.8v-83.2h172.8v-83.2h-256v851.2zM428.8 704h172.8v-83.2h-89.6v-83.2h83.2v-345.6h-83.2v-83.2h83.2v-83.2h-166.4v678.4z" />
<glyph unicode="&#xe90c;" glyph-name="youtube" d="M1001.244 698.311c11.378-34.133 17.067-85.333 17.067-153.6l5.689-96.711v-91.022c-5.689-68.267-11.378-119.467-17.067-153.6-5.689-22.756-17.067-39.822-34.133-56.889s-34.133-28.444-56.889-34.133c-34.133-11.378-108.089-17.067-227.556-17.067h-341.333c-119.467 5.689-199.111 11.378-227.556 17.067-22.756 5.689-39.822 17.067-56.889 34.133s-28.444 34.133-34.133 56.889c-11.378 34.133-17.067 85.333-17.067 153.6l-11.378 91.022c0 28.444 0 56.889 0 91.022 5.689 68.267 11.378 119.467 17.067 153.6 5.689 22.756 17.067 39.822 34.133 56.889s39.822 34.133 62.578 39.822c34.133 11.378 108.089 17.067 227.556 17.067h341.333c119.467-5.689 199.111-11.378 227.556-17.067 22.756-5.689 39.822-17.067 56.889-34.133s28.444-39.822 34.133-56.889zM409.6 294.4l267.378 153.6-267.378 153.6v-307.2z" />
<glyph unicode="&#xe90d;" glyph-name="insta" d="M1024 658.489c0-39.822 0-113.778 0-210.489s0-170.667-5.689-216.178c0-45.511-11.378-79.644-17.067-113.778-11.378-39.822-34.133-73.956-62.578-96.711-28.444-28.444-62.578-51.2-96.711-62.578s-68.267-17.067-113.778-17.067c-45.511-5.689-119.467-5.689-216.178-5.689s-170.667 0-216.178 5.689c-45.511 0-79.644 11.378-113.778 22.756s-68.267 28.444-96.711 56.889c-28.444 28.444-51.2 62.578-62.578 102.4-11.378 34.133-17.067 68.267-17.067 113.778-5.689 39.822-5.689 113.778-5.689 210.489s0 170.667 5.689 216.178c0 45.511 11.378 79.644 17.067 113.778 11.378 34.133 34.133 68.267 62.578 96.711s62.578 51.2 102.4 62.578c34.133 11.378 68.267 17.067 113.778 17.067 39.822 5.689 113.778 5.689 210.489 5.689s170.667 0 216.178-5.689c45.511 0 79.644-11.378 113.778-17.067 34.133-11.378 68.267-34.133 96.711-62.578s51.2-62.578 62.578-102.4c11.378-28.444 17.067-68.267 22.756-113.778zM910.222 146.489c11.378 28.444 17.067 68.267 17.067 125.156 0 34.133 0 79.644 0 142.222v68.267c0 62.578 0 108.089 0 142.222-5.689 56.889-11.378 96.711-17.067 125.156-17.067 45.511-51.2 79.644-96.711 96.711-22.756 11.378-68.267 17.067-125.156 17.067-34.133 0-79.644 0-142.222 0h-68.267c-62.578 0-108.089 0-142.222 0-56.889 0-96.711-5.689-125.156-17.067-45.511-17.067-79.644-51.2-96.711-96.711-11.378-22.756-17.067-62.578-22.756-125.156 0-34.133 0-79.644 0-142.222v-73.956c0-62.578 0-108.089 0-142.222 5.689-56.889 11.378-96.711 17.067-125.156 17.067-45.511 51.2-79.644 96.711-96.711 28.444-11.378 68.267-17.067 125.156-17.067 34.133 0 79.644 0 142.222 0h73.956c62.578 0 108.089 0 142.222 0 56.889 5.689 96.711 11.378 125.156 17.067 45.511 22.756 79.644 56.889 96.711 102.4zM512 709.689c45.511 0 91.022-11.378 130.844-34.133s73.956-56.889 96.711-96.711 34.133-85.333 34.133-130.844c0-45.511-11.378-91.022-34.133-130.844s-56.889-73.956-96.711-96.711c-39.822-22.756-85.333-34.133-130.844-34.133s-91.022 11.378-130.844 34.133-73.956 56.889-96.711 96.711c-22.756 39.822-34.133 85.333-34.133 130.844s11.378 91.022 34.133 130.844c22.756 39.822 56.889 73.956 96.711 96.711s85.333 34.133 130.844 34.133zM512 277.333c45.511 0 85.333 17.067 119.467 51.2s51.2 73.956 51.2 119.467c0 45.511-17.067 85.333-51.2 119.467s-73.956 51.2-119.467 51.2c-45.511 0-85.333-17.067-119.467-51.2s-51.2-73.956-51.2-119.467c0-45.511 17.067-85.333 51.2-119.467s73.956-51.2 119.467-51.2zM847.644 721.067c0 17.067-5.689 28.444-17.067 45.511-11.378 11.378-28.444 17.067-45.511 17.067s-28.444-5.689-45.511-17.067c-11.378-11.378-17.067-28.444-17.067-45.511s5.689-28.444 17.067-45.511c11.378-11.378 28.444-17.067 45.511-17.067s28.444 5.689 39.822 17.067c17.067 17.067 22.756 28.444 22.756 45.511z" />
<glyph unicode="&#xe90e;" glyph-name="facebook" d="M403.911 396.8h-153.6v176.356h153.6v147.911c0 73.956 22.756 136.533 62.578 176.356s96.711 62.578 170.667 62.578c56.889 0 102.4 0 142.222-5.689v-164.978h-96.711c-34.133 0-62.578-5.689-73.956-22.756-11.378-11.378-17.067-34.133-17.067-62.578v-125.156h170.667l-22.756-182.044h-147.911v-460.8h-187.733v460.8z" />
<glyph unicode="&#xe90f;" glyph-name="arrow-up" d="M460.8 755.2c10.24 10.24 30.72 20.48 51.2 20.48s40.96-10.24 51.2-20.48l440.32-440.32c10.24-10.24 20.48-30.72 20.48-51.2s-10.24-40.96-20.48-51.2l-71.68-71.68c-20.48-10.24-40.96-20.48-61.44-20.48s-40.96 10.24-51.2 20.48l-307.2 307.2-307.2-307.2c-20.48-10.24-30.72-20.48-51.2-20.48s-40.96 10.24-61.44 20.48l-71.68 71.68c-10.24 10.24-20.48 30.72-20.48 51.2s10.24 40.96 20.48 51.2l440.32 440.32z" />
<glyph unicode="&#xe910;" glyph-name="grill" d="M1003.52 680.107h-215.040v180.907c0 30.72-23.893 54.613-54.613 54.613h-443.733c-30.72 0-54.613-23.893-54.613-54.613v-184.32h-215.040c-10.24 3.413-20.48-6.827-20.48-20.48v-51.2c0-10.24 6.827-17.067 17.067-20.48l194.56-54.613v-37.547c0-51.2 20.48-95.573 58.027-129.707v-218.453c-20.48-17.067-30.72-40.96-30.72-68.267 0-17.067 6.827-34.133 13.653-47.787h-163.84c-13.653 0-20.48-10.24-20.48-20.48 0-13.653 10.24-20.48 20.48-20.48h843.093c13.653 0 20.48 10.24 20.48 20.48 0 13.653-10.24 20.48-20.48 20.48h-160.427c10.24 13.653 13.653 30.72 13.653 47.787 0 27.307-13.653 51.2-30.72 68.267v218.453c37.547 34.133 58.027 81.92 58.027 129.707v37.547l194.56 54.613c10.24 3.413 17.067 10.24 17.067 20.48v51.2c0 13.653-10.24 23.893-20.48 23.893zM634.88 256.853h-245.76v61.44h245.76v-61.44zM300.373 113.493c3.413 3.413 6.827 3.413 10.24 6.827 0 0 0 0 0 0 10.24 3.413 17.067 3.413 27.307 0 0 0 0 0 0 0 3.413 0 6.827-3.413 13.653-6.827 0 0 0 0 0 0 13.653-10.24 23.893-23.893 23.893-40.96 0-27.307-20.48-47.787-47.787-47.787s-47.787 20.48-47.787 47.787c0 17.067 6.827 34.133 20.48 40.96zM419.84 72.533c0 27.307-13.653 51.2-30.72 68.267v68.267h245.76v-68.267c-20.48-17.067-30.72-40.96-30.72-68.267 0-17.067 6.827-34.133 13.653-47.787h-211.627c10.24 13.653 13.653 30.72 13.653 47.787zM645.12 72.533c0 17.067 10.24 34.133 23.893 40.96 3.413 3.413 6.827 3.413 10.24 6.827 0 0 0 0 0 0 10.24 3.413 17.067 3.413 27.307 0 0 0 0 0 0 0 3.413 0 6.827-3.413 13.653-6.827 0 0 0 0 0 0 13.653-10.24 23.893-23.893 23.893-40.96 0-27.307-20.48-47.787-47.787-47.787s-51.2 20.48-51.2 47.787zM713.387 164.693c-10.24 3.413-23.893 3.413-34.133 0v174.080c0 6.827-3.413 13.653-6.827 17.067s-10.24 6.827-17.067 6.827c-6.827 0-10.24 0-13.653 0h-256c-3.413 0-10.24 0-13.653 0-6.827 0-13.653 0-17.067-6.827-3.413-3.413-6.827-10.24-6.827-17.067v-174.080c-6.827 0-10.24 0-17.067 0s-10.24 0-17.067 0v204.8c0 6.827-3.413 13.653-6.827 17.067-27.307 23.893-44.373 54.613-47.787 88.747h515.413c-3.413-34.133-20.48-68.267-47.787-88.747-6.827-3.413-6.827-10.24-6.827-17.067v-204.8zM744.107 680.107h-44.373v37.547c0 17.067-17.067 30.72-40.96 30.72h-293.547c-23.893 0-40.96-13.653-40.96-30.72v-37.547h-44.373v180.907c0 3.413 3.413 10.24 10.24 10.24h443.733c3.413 0 10.24-3.413 10.24-10.24v-180.907zM368.64 704h290.133v-23.893h-290.133v23.893zM252.587 635.733h518.827v-112.64h-518.827v112.64zM44.373 635.733h163.84v-61.44l-163.84 47.787v13.653zM815.787 635.733h163.84v-13.653l-163.84-47.787v61.44z" />
<glyph unicode="&#xe911;" glyph-name="additional-products" d="M597.333 99.84l-177.493 614.4c-17.067 54.613-75.093 85.333-129.707 71.68l-6.827-6.827c-10.24-3.413-20.48-10.24-27.307-20.48s-6.827-23.893-3.413-34.133l54.613-191.147c6.827-20.48 23.893-30.72 40.96-30.72 0 0 0 0 0 0l92.16-314.027-177.493 273.067c13.653 13.653 17.067 37.547 3.413 54.613l-105.813 167.253c-13.653 20.48-40.96 23.893-61.44 10.24l-6.827-3.413c-23.893-13.653-37.547-37.547-44.373-64.853s0-54.613 13.653-78.507l348.16-532.48c20.48-30.72 54.613-47.787 85.333-47.787 20.48 0 37.547 6.827 58.027 17.067 37.547 23.893 54.613 68.267 44.373 112.64 0 0 0 0 0 3.413zM235.52 485.547l-6.827-3.413c-10.24-6.827-10.24-17.067-6.827-27.307l211.627-324.267c6.827-10.24 17.067-10.24 27.307-6.827 6.827 3.413 13.653 6.827 20.48 6.827s10.24 3.413 17.067 3.413c0 0 3.413 0 3.413 0 3.413 0 10.24 0 13.653-3.413 0 0 3.413 0 3.413 0 6.827-3.413 10.24-3.413 13.653-6.827 0 0 3.413-3.413 3.413-3.413 3.413-3.413 10.24-6.827 13.653-13.653 3.413-3.413 6.827-10.24 6.827-17.067 10.24-27.307 0-58.027-27.307-75.093-30.72-20.48-68.267-10.24-88.747 17.067l-344.747 535.893c-20.48 30.72-10.24 68.267 17.067 88.747l6.827 3.413c0 0 3.413 0 3.413 0s3.413 0 3.413-3.413l109.227-167.253c0 0 0-3.413 0-3.413 3.413 3.413 0 3.413 0 0zM382.293 700.587l157.013-535.893c-3.413 0-6.827 0-6.827 3.413 0 0-3.413 0-3.413 0-3.413 0-10.24 3.413-13.653 3.413 0 0-3.413 0-3.413 0-3.413 0-6.827 0-10.24 0s-6.827 0-10.24 0l-102.4 358.4c0 3.413-3.413 10.24-10.24 10.24-3.413 3.413-10.24 3.413-13.653 0l-6.827-3.413c0 0-3.413 0-3.413 0s-3.413 3.413-3.413 3.413l-61.44 194.56c0 0 0 3.413 0 3.413s3.413 3.413 3.413 3.413l6.827 3.413c37.547 10.24 71.68-10.24 81.92-44.373zM474.453 34.987c3.413 0 6.827 0 10.24 3.413 10.24 6.827 10.24 17.067 6.827 27.307 0 3.413 0 3.413 0 6.827s3.413 3.413 3.413 6.827 6.827 6.827 6.827 13.653c0 3.413 0 10.24-3.413 13.653s-6.827 6.827-13.653 6.827c-3.413 0-10.24 0-13.653-3.413-10.24-6.827-17.067-17.067-20.48-30.72s0-23.893 6.827-34.133c6.827-6.827 10.24-10.24 17.067-10.24zM979.627 645.973c0 3.413 0 3.413 0 0v293.547c0 6.827-3.413 10.24-6.827 13.653s-10.24 6.827-13.653 6.827c0 0 0 0 0 0h-105.813c0 0 0 0 0 0h-194.56c-10.24 0-20.48-10.24-20.48-20.48v-290.133c0 0 0-3.413 0-3.413s0 0 0-3.413 3.413-6.827 3.413-6.827c0 0 0 0 0 0s0 0 0 0l105.813-95.573v-256c-13.653-6.827-23.893-17.067-23.893-34.133v-276.48c0-10.24 3.413-17.067 10.24-23.893s17.067-10.24 27.307-10.24h92.16c10.24 0 17.067 3.413 23.893 10.24s10.24 17.067 10.24 23.893v276.48c0 10.24-3.413 17.067-10.24 23.893-3.413 3.413-6.827 6.827-13.653 6.827v256c40.96 37.547 105.813 95.573 105.813 95.573v0c0 0 0 0 0 0 6.827 6.827 6.827 10.24 10.24 13.653-3.413 0 0 0 0 0zM853.333 246.613v-273.067h-85.333v273.067h78.507c0 0 0 0 0 0h6.827zM829.44 287.573v0h-37.547v242.347h37.547v-242.347zM778.24 567.467l-68.267 61.44h197.973l-68.267-61.44h-61.44zM808.96 669.867h-133.12v252.587h68.267v-177.493c0-10.24 10.24-20.48 20.48-20.48s20.48 10.24 20.48 20.48v177.493h51.2v-177.493c0-6.827 3.413-10.24 6.827-13.653s6.827-6.827 13.653-6.827c0 0 0 0 0 0 6.827 0 10.24 3.413 13.653 6.827v0c3.413 3.413 6.827 10.24 6.827 13.653v177.493h68.267v-252.587h-136.533z" />
<glyph unicode="&#xe912;" glyph-name="spare-parts" d="M938.667 89.6h-853.333c-47.787 0-85.333 37.547-85.333 85.333v546.133c0 47.787 37.547 85.333 85.333 85.333h853.333c47.787 0 85.333-37.547 85.333-85.333v-546.133c0-47.787-37.547-85.333-85.333-85.333zM85.333 758.613c-20.48 0-37.547-17.067-37.547-37.547v-546.133c0-20.48 17.067-37.547 37.547-37.547h853.333c20.48 0 37.547 17.067 37.547 37.547v546.133c0 20.48-17.067 37.547-37.547 37.547h-853.333zM1000.107 263.68h-976.213c-13.653 0-23.893 10.24-23.893 23.893v331.093c0 13.653 10.24 23.893 23.893 23.893h976.213c13.653 0 23.893-10.24 23.893-23.893v-331.093c0-13.653-10.24-23.893-23.893-23.893zM47.787 311.467h925.013v283.307h-925.013v-283.307zM597.333 89.6h-167.253c-13.653 0-23.893 10.24-23.893 23.893v669.013c0 13.653 10.24 23.893 23.893 23.893h167.253c13.653 0 23.893-10.24 23.893-23.893v-669.013c0-13.653-10.24-23.893-23.893-23.893zM450.56 137.387h119.467v621.227h-119.467v-621.227zM890.88 89.6h-167.253c-13.653 0-23.893 10.24-23.893 23.893v669.013c0 13.653 10.24 23.893 23.893 23.893h167.253c13.653 0 23.893-10.24 23.893-23.893v-669.013c0-13.653-10.24-23.893-23.893-23.893zM747.52 137.387h119.467v621.227h-119.467v-621.227zM303.787 89.6h-170.667c-13.653 0-23.893 10.24-23.893 23.893v669.013c0 13.653 10.24 23.893 23.893 23.893h167.253c13.653 0 23.893-10.24 23.893-23.893v-669.013c3.413-13.653-10.24-23.893-20.48-23.893zM157.013 137.387h119.467v621.227h-119.467v-621.227z" />
<glyph unicode="&#xe913;" glyph-name="tent" d="M262.827 52.053c-17.067 0-30.72 13.653-30.72 30.72s13.653 30.72 30.72 30.72c17.067 0 30.72 13.653 30.72 30.72s-13.653 30.72-30.72 30.72h-13.653c-13.653 0-27.307 10.24-30.72 23.893s3.413 30.72 17.067 34.133c98.987 40.96 232.107 235.52 245.76 276.48 6.827 17.067 23.893 23.893 40.96 20.48 17.067-6.827 23.893-23.893 20.48-40.96-3.413-10.24-10.24-20.48-17.067-37.547 13.653-3.413 20.48-17.067 20.48-30.72-3.413-13.653-37.547-368.64-283.307-368.64zM324.267 219.307c20.48-17.067 34.133-40.96 34.133-71.68 71.68 54.613 102.4 167.253 116.053 232.107-40.96-58.027-95.573-119.467-150.187-160.427zM866.987 52.053h-354.987c-17.067 0-30.72 13.653-30.72 30.72v419.84c0 17.067 13.653 30.72 30.72 30.72s30.72-13.653 30.72-30.72v-385.707h303.787l34.133 88.747c-51.2 68.267-276.48 358.4-368.64 535.893-92.16-177.493-314.027-467.627-368.64-535.893l34.133-88.747h85.333c17.067 0 30.72-13.653 30.72-30.72s-13.653-30.72-30.72-30.72h-105.813c-13.653 0-23.893 6.827-30.72 20.48l-47.787 122.88c-3.413 10.24-3.413 20.48 3.413 30.72 6.827 3.413 341.333 430.080 399.36 593.92 3.413 13.653 17.067 20.48 30.72 20.48v0c13.653 0 23.893-6.827 30.72-20.48 58.027-163.84 395.947-590.507 399.36-597.333 6.827-10.24 10.24-20.48 3.413-30.72l-47.787-122.88c-3.413-13.653-17.067-20.48-30.72-20.48zM61.44 52.053c-13.653 0-23.893 6.827-30.72 20.48l-30.72 95.573c-6.827 17.067 3.413 34.133 20.48 40.96s34.133-3.413 40.96-20.48l30.72-92.16c6.827-17.067-3.413-34.133-20.48-40.96-3.413-3.413-6.827-3.413-10.24-3.413zM47.787 99.84c-6.827 0-13.653 3.413-20.48 6.827-13.653 10.24-17.067 30.72-3.413 44.373l61.44 78.507c10.24 13.653 30.72 17.067 44.373 3.413 13.653-10.24 17.067-30.72 3.413-44.373l-61.44-78.507c-6.827-6.827-17.067-10.24-23.893-10.24zM962.56 52.053c-3.413 0-6.827 0-10.24 0-17.067 6.827-23.893 23.893-20.48 40.96l30.72 92.16c6.827 17.067 23.893 23.893 40.96 20.48 17.067-6.827 23.893-23.893 20.48-40.96l-34.133-92.16c-3.413-10.24-13.653-20.48-27.307-20.48zM976.213 99.84c-10.24 0-17.067 3.413-23.893 10.24l-61.44 78.507c-10.24 13.653-10.24 34.133 3.413 44.373s34.133 10.24 44.373-3.413l61.44-78.507c10.24-13.653 10.24-34.133-3.413-44.373-6.827-6.827-13.653-6.827-20.48-6.827z" />
<glyph unicode="&#xe914;" glyph-name="furniture" d="M942.080 663.040c-6.827 6.827-13.653 10.24-23.893 10.24h-47.787c-17.067 0-34.133-13.653-34.133-34.133v-184.32h-30.72v334.507c0 95.573-75.093 170.667-170.667 170.667h-252.587c-95.573 0-170.667-75.093-170.667-170.667v-334.507h-27.307v184.32c0 17.067-13.653 34.133-34.133 34.133h-44.373c-17.067 0-34.133-13.653-34.133-30.72 0-10.24 3.413-17.067 10.24-23.893s13.653-10.24 23.893-10.24h13.653v-184.32c0-17.067 13.653-34.133 34.133-34.133h64.853v-389.12h-17.067c0 0 0 0 0 0-17.067 0-30.72-13.653-34.133-30.72 0-10.24 3.413-17.067 10.24-23.893s13.653-10.24 23.893-10.24h119.467c0 0 0 0 0 0 17.067 0 30.72 13.653 34.133 30.72 0 17.067-13.653 34.133-34.133 34.133h-10.24l201.387 163.84 201.387-163.84h-10.24c0 0 0 0 0 0-17.067 0-30.72-13.653-34.133-30.72 0-10.24 3.413-17.067 10.24-23.893s13.653-10.24 23.893-10.24h119.467c0 0 0 0 0 0 17.067 0 30.72 13.653 34.133 30.72 0 17.067-13.653 34.133-34.133 34.133h-13.653v389.12h64.853c17.067 0 34.133 13.653 34.133 34.133v184.32h13.653c0 0 0 0 0 0 10.24 0 17.067 3.413 23.893 10.24s10.24 13.653 10.24 23.893c-3.413 6.827-6.827 13.653-13.653 20.48zM682.667 389.973l-170.667-139.947-170.667 139.947h341.333zM744.107 355.84v-293.547l-180.907 146.773 180.907 146.773zM279.893 458.24v331.093c0 58.027 47.787 105.813 105.813 105.813h252.587c58.027 0 105.813-47.787 105.813-105.813v-334.507h-464.213zM460.8 209.067l-180.907-146.773v293.547l180.907-146.773z" />
<glyph unicode="&#xe915;" glyph-name="sleeping-bag" d="M737.28 591.36h64.853v-413.013h-64.853v413.013zM197.973 72.533h-64.853v778.24c0 61.44 47.787 109.227 109.227 109.227h453.973c58.027 0 109.227-47.787 109.227-109.227v-109.227h-64.853v109.227c0 23.893-20.48 44.373-44.373 44.373h-453.973c-23.893 0-44.373-20.48-44.373-44.373v-778.24zM576.853 403.627c-13.653 0-23.893 6.827-30.72 17.067-37.547 78.507-85.333 126.293-143.36 143.36-64.853 20.48-129.707-3.413-146.773-10.24-30.72-30.72-51.2-64.853-61.44-105.813l-61.44 17.067c88.747 331.093 682.667 310.613 706.56 307.2 10.24 0 17.067-3.413 23.893-13.653 6.827-6.827 6.827-17.067 6.827-27.307-51.2-228.693-273.067-324.267-283.307-327.68-3.413 0-6.827 0-10.24 0zM385.707 635.733c13.653-3.413 23.893-3.413 37.547-10.24 68.267-20.48 122.88-71.68 167.253-150.187 51.2 27.307 160.427 102.4 204.8 228.693-81.92 3.413-266.24-3.413-409.6-68.267zM430.080 458.24h-252.587c-17.067 0-34.133 13.653-34.133 34.133s13.653 34.133 34.133 34.133h252.587c17.067 0 34.133-13.653 34.133-34.133s-13.653-34.133-34.133-34.133zM167.253 355.84h600.747v-64.853h-600.747v64.853zM221.867-64c-51.2 0-88.747 58.027-88.747 136.533s37.547 136.533 88.747 136.533c47.787 0 85.333-58.027 85.333-136.533s-37.547-136.533-85.333-136.533zM218.453 144.213c-3.413-3.413-20.48-27.307-20.48-71.68s17.067-68.267 23.893-71.68c3.413 3.413 20.48 27.307 20.48 71.68s-17.067 68.267-23.893 71.68zM802.133-64h-580.267v64.853h580.267c6.827 3.413 23.893 27.307 23.893 71.68s-17.067 68.267-23.893 71.68h-583.68v64.853h583.68c51.2 0 88.747-58.027 88.747-136.533s-37.547-136.533-88.747-136.533z" />
<glyph unicode="&#xe916;" glyph-name="coffee-gas" d="M785.067 960h-170.667v-54.613h170.667c20.48 0 54.613-6.827 54.613-34.133v-6.827c0-23.893-27.307-37.547-64.853-58.027l-170.667-85.333h-64.853v44.373h68.267c3.413 0 6.827 0 10.24 3.413 10.24 3.413 17.067 13.653 17.067 27.307v44.373c0 17.067-13.653 27.307-27.307 27.307s-27.307-13.653-27.307-27.307v-17.067h-40.96v17.067c0 17.067-13.653 27.307-27.307 27.307-17.067 0-27.307-13.653-27.307-27.307v-17.067h-40.96v17.067c0 17.067-13.653 27.307-27.307 27.307-17.067 0-27.307-13.653-27.307-27.307v-44.373c0-13.653 10.24-23.893 23.893-27.307 3.413 0 3.413 0 6.827 0h68.267v-47.787h-64.853l-170.667 85.333c-40.96 17.067-68.267 34.133-68.267 54.613v6.827c0 27.307 34.133 34.133 54.613 34.133h170.667v58.027h-170.667c-64.853 0-109.227-37.547-109.227-92.16v-6.827c0-58.027 54.613-85.333 95.573-105.813l174.080-88.747v-153.6h54.613v150.187h112.64v-150.187h54.613v40.96h47.787v-20.48c0-6.827 3.413-13.653 6.827-17.067s10.24-6.827 17.067-6.827c0 0 0 0 3.413 0l98.987 10.24c13.653 0 20.48 10.24 20.48 23.893v78.507c0 13.653-10.24 23.893-20.48 23.893l-98.987 6.827c-6.827 0-13.653 0-17.067-6.827-3.413-3.413-6.827-10.24-6.827-17.067v-20.48h-47.787v58.027l174.080 88.747c40.96 20.48 95.573 47.787 95.573 105.813v6.827c0 54.613-44.373 92.16-109.227 92.16zM716.8 605.013l51.2-3.413v-34.133l-51.2-6.827v44.373zM576.853 471.893h-129.707c-163.84 0-300.373-133.12-300.373-300.373v-235.52h730.453v235.52c0 163.84-133.12 300.373-300.373 300.373zM447.147 413.867h129.707c81.92 0 157.013-40.96 201.387-105.813h-532.48c44.373 64.853 116.053 105.813 201.387 105.813zM819.2-9.387h-614.4v71.68h614.4v-71.68zM819.2 171.52v-54.613h-614.4v54.613c0 27.307 6.827 54.613 13.653 81.92h590.507c6.827-27.307 10.24-54.613 10.24-81.92z" />
<glyph unicode="&#xe917;" glyph-name="picnic-box" d="M170.667 813.227c0 10.24 6.827 17.067 17.067 17.067h662.187c10.24 0 20.48-10.24 20.48-20.48v-47.787h68.267v51.2c0 47.787-40.96 88.747-88.747 88.747h-662.187c-47.787 0-88.747-40.96-88.747-88.747v-47.787h68.267v47.787zM935.253 721.067h-846.507c-47.787 0-88.747-37.547-88.747-88.747v-549.547c0-47.787 40.96-88.747 88.747-88.747h846.507c47.787 0 88.747 40.96 88.747 88.747v549.547c0 51.2-40.96 88.747-88.747 88.747zM955.733 82.773c0-10.24-10.24-20.48-20.48-20.48h-846.507c-10.24 3.413-20.48 10.24-20.48 20.48v549.547c0 13.653 10.24 20.48 20.48 20.48h846.507c10.24 0 20.48-6.827 20.48-20.48v-549.547zM167.253 570.88c-20.48 0-34.133-17.067-34.133-34.133v-354.987c0-20.48 17.067-34.133 34.133-34.133 20.48 0 34.133 17.067 34.133 34.133v354.987c0 17.067-17.067 34.133-34.133 34.133zM843.093 570.88c-20.48 0-34.133-17.067-34.133-34.133v-354.987c0-20.48 17.067-34.133 34.133-34.133s34.133 17.067 34.133 34.133v354.987c0 17.067-17.067 34.133-34.133 34.133z" />
<glyph unicode="&#xe918;" glyph-name="beach-tent" d="M512 430.933v0 0c-6.827 0-13.653-6.827-23.893-13.653v0-157.013h47.787v157.013c-10.24 10.24-17.067 13.653-23.893 13.653zM1017.173 304.64c-3.413 3.413-6.827 6.827-13.653 13.653l-474.453 433.493c-10.24 6.827-23.893 6.827-34.133 0l-471.040-433.493c-6.827-6.827-13.653-10.24-17.067-13.653-10.24-10.24-10.24-23.893 0-34.133s23.893-10.24 34.133 0l13.653 13.653c81.92 71.68 194.56 157.013 249.173 163.84 6.827-27.307-23.893-139.947-78.507-269.653-3.413-13.653 0-27.307 13.653-30.72 3.413-6.827 6.827-6.827 10.24-6.827 10.24 0 17.067 3.413 20.48 13.653 64.853 129.707 184.32 310.613 242.347 310.613s177.493-180.907 242.347-310.613c6.827-10.24 20.48-17.067 30.72-10.24s17.067 20.48 13.653 30.72c-54.613 133.12-85.333 242.347-78.507 269.653 54.613-6.827 167.253-92.16 249.173-163.84l13.653-13.653c10.24-10.24 23.893-6.827 34.133 0 10.24 10.24 10.24 27.307 0 37.547zM682.667 475.307c-10.24-17.067-13.653-51.2 0-102.4-64.853 92.16-122.88 139.947-167.253 139.947s-102.4-47.787-167.253-139.947c10.24 51.2 10.24 81.92 0 102.4-6.827 13.653-20.48 17.067-34.133 17.067-6.827 0-17.067 0-27.307-3.413l225.28 211.627 232.107-211.627c-10.24 3.413-20.48 3.413-27.307 3.413-17.067 0-27.307-6.827-34.133-17.067z" />
<glyph unicode="&#xe919;" glyph-name="backpack" d="M436.907 908.8h136.533c6.827 0 13.653-10.24 13.653-23.893h51.2c-3.413 40.96-30.72 75.093-68.267 75.093h-136.533c-37.547 0-64.853-34.133-64.853-75.093h51.2c0 13.653 10.24 23.893 17.067 23.893zM815.787 570.88h-10.24v68.267c0 112.64-92.16 204.8-204.8 204.8h-191.147c-112.64 0-204.8-92.16-204.8-204.8v-68.267h-13.653c-47.787 0-88.747-40.96-88.747-88.747v-160.427c0-47.787 40.96-85.333 88.747-85.333h10.24v-51.2c-37.547-13.653-68.267-51.2-68.267-92.16v-58.027c0-54.613 44.373-98.987 98.987-98.987h542.72c54.613 0 98.987 44.373 98.987 98.987v58.027c0 44.373-27.307 81.92-68.267 92.16v51.2h10.24c51.2 0 88.747 37.547 88.747 85.333v160.427c0 47.787-40.96 88.747-88.747 88.747zM409.6 792.747h191.147c78.507 0 146.773-61.44 153.6-139.947-283.307-61.44-453.973-17.067-501.76-3.413 6.827 78.507 75.093 143.36 157.013 143.36zM631.467 482.133v-44.373h-34.133v44.373h34.133zM406.187 482.133v-44.373h-34.133v44.373h34.133zM365.227 574.293v-51.2h-13.653c-13.653 0-20.48-10.24-20.48-20.48v-88.747c0-13.653 10.24-20.48 20.48-20.48h13.653v-85.333h51.2v85.333h13.653c13.653 0 20.48 10.24 20.48 20.48v88.747c0 13.653-10.24 20.48-20.48 20.48h-13.653v44.373c17.067 0 37.547 0 58.027 0 34.133 0 75.093 3.413 116.053 6.827v-51.2h-13.653c-13.653 0-20.48-10.24-20.48-20.48v-88.747c0-13.653 10.24-20.48 20.48-20.48h13.653v-85.333h51.2v85.333h13.653c13.653 0 20.48 10.24 20.48 20.48v88.747c0 13.653-10.24 20.48-20.48 20.48h-13.653v54.613c34.133 3.413 71.68 10.24 112.64 20.48v-406.187h-501.76v402.773c23.893-6.827 61.44-13.653 112.64-20.48zM645.12 140.8v-153.6h-286.72v153.6h286.72zM191.147 287.573c-20.48 0-37.547 17.067-37.547 34.133v160.427c0 20.48 17.067 34.133 37.547 34.133h10.24v-228.693h-10.24zM184.32 34.987v58.027c0 27.307 20.48 47.787 47.787 47.787h75.093v-153.6h-75.093c-27.307 0-47.787 20.48-47.787 47.787zM822.613 93.013v-58.027c0-27.307-20.48-47.787-47.787-47.787h-75.093v153.6h75.093c23.893 0 47.787-20.48 47.787-47.787zM853.333 321.707c0-20.48-17.067-34.133-37.547-34.133h-10.24v228.693h10.24c20.48 0 37.547-17.067 37.547-34.133v-160.427z" />
<glyph unicode="&#xe91a;" glyph-name="garden-furniture" d="M983.040 407.040h-47.787v27.307l27.307 105.813c10.24 40.96 13.653 81.92 13.653 122.88v81.92h47.787v-81.92c0-44.373-6.827-92.16-17.067-133.12l-27.307-102.4v-20.48zM194.56 557.227h634.88v-47.787h-634.88v47.787zM488.107 533.333h47.787v-402.773h-47.787v402.773zM406.187 154.453h211.627v-47.787h-211.627v47.787zM655.36 516.267l-34.133 34.133c20.48 20.48 30.72 58.027 34.133 85.333h-116.053c3.413-27.307 13.653-64.853 34.133-85.333l-34.133-34.133c-47.787 47.787-51.2 139.947-51.2 143.36v23.893h218.453v-23.893c0-3.413 0-95.573-51.2-143.36zM406.187 519.68c-44.373 75.093-44.373 238.933-44.373 245.76v23.893h218.453v-23.893c0-3.413 0-61.44-6.827-109.227l-47.787 6.827c3.413 27.307 3.413 58.027 6.827 78.507h-122.88c3.413-54.613 10.24-150.187 37.547-197.973l-40.96-23.893zM928.427 318.293h-218.453c-30.72 0-51.2 23.893-51.2 51.2 0 44.373 37.547 81.92 81.92 81.92h191.147c30.72 0 51.2-23.893 51.2-51.2v-27.307c0-30.72-23.893-54.613-54.613-54.613zM737.28 403.627c-17.067 0-30.72-13.653-30.72-30.72 0-3.413 3.413-3.413 3.413-3.413h218.453c3.413 0 3.413 3.413 3.413 3.413v27.307c0 3.413-3.413 3.413-3.413 3.413h-191.147zM1003.52 110.080h-47.787v13.653c0 71.68-13.653 143.36-40.96 211.627l44.373 17.067c30.72-71.68 44.373-150.187 44.373-228.693v-13.653zM727.040 110.080h-47.787v13.653c0 78.507 13.653 157.013 44.373 228.693l44.373-17.067c-27.307-68.267-40.96-139.947-40.96-211.627v-13.653zM68.267 110.080h-47.787v13.653c0 78.507 13.653 157.013 44.373 228.693l44.373-17.067c-27.307-68.267-40.96-139.947-40.96-211.627v-13.653zM344.747 110.080h-47.787v13.653c0 71.68-13.653 143.36-40.96 211.627l44.373 17.067c30.72-71.68 44.373-150.187 44.373-228.693v-13.653zM92.16 407.040h-51.2v17.067l-27.307 102.4c-6.827 44.373-13.653 88.747-13.653 136.533v81.92h47.787v-81.92c0-40.96 3.413-81.92 13.653-122.88l27.307-112.64v-20.48zM314.027 318.293h-218.453c-30.72 0-51.2 23.893-51.2 51.2v27.307c0 30.72 23.893 51.2 51.2 51.2h191.147c44.373 0 81.92-37.547 81.92-81.92-3.413-23.893-23.893-47.787-54.613-47.787zM95.573 403.627c-3.413 0-3.413-3.413-3.413-3.413v-27.307c0-3.413 3.413-3.413 3.413-3.413h218.453c3.413 0 3.413 3.413 3.413 3.413 0 17.067-13.653 30.72-30.72 30.72h-191.147z" />
<glyph unicode="&#xe91b;" glyph-name="trampoline" d="M829.44 192c-88.747-17.067-201.387-23.893-317.44-23.893s-228.693 6.827-317.44 23.893c-61.44 10.24-98.987 23.893-119.467 34.133 20.48 10.24 58.027 23.893 119.467 34.133 75.093 13.653 170.667 23.893 273.067 23.893l64.853-64.853c13.653-13.653 37.547-6.827 44.373 10.24 3.413 6.827 0 17.067-6.827 23.893l-23.893 30.72c13.653 0 27.307 0 40.96 0l47.787-47.787c13.653-13.653 37.547-6.827 44.373 10.24 3.413 6.827 0 17.067-6.827 23.893l-6.827 6.827c61.44-3.413 119.467-10.24 167.253-20.48 61.44-10.24 98.987-23.893 119.467-34.133-23.893-6.827-61.44-20.48-122.88-30.72zM491.52 359.253v109.227h34.133v-98.987c0-10.24 3.413-20.48 6.827-30.72-6.827 0-13.653 0-20.48 0-3.413 0-10.24 0-13.653 0-3.413 6.827-6.827 13.653-6.827 20.48zM614.4 338.773l-10.24 13.653c-6.827 6.827-10.24 17.067-10.24 27.307v102.4c0 3.413 0 3.413 0 6.827v177.493l116.053 81.92c13.653 10.24 20.48 30.72 13.653 47.787l-44.373 98.987c-3.413 10.24-13.653 17.067-23.893 17.067-17.067 0-30.72-17.067-23.893-34.133l30.72-64.853c3.413-6.827 0-17.067-6.827-23.893l-92.16-64.853c-3.413 0-3.413 0-6.827 0h-92.16c0 0 0 0-3.413 0l-88.747 64.853c-6.827 6.827-10.24 13.653-6.827 23.893l30.72 64.853c6.827 17.067-6.827 34.133-23.893 34.133-10.24 0-20.48-6.827-23.893-17.067l-47.787-98.987c-3.413-17.067 0-34.133 13.653-47.787l109.227-78.507v-317.44c0-3.413 0-10.24 0-13.653-238.933-10.24-423.253-54.613-423.253-109.227 0-3.413 0-3.413 0-6.827v-187.733c0-10.24 10.24-20.48 20.48-20.48s20.48 10.24 20.48 20.48v150.187c75.093-40.96 256-68.267 467.627-71.68v-109.227c0-10.24 10.24-20.48 20.48-20.48s20.48 10.24 20.48 20.48v109.227c197.973 3.413 368.64 30.72 440.32 71.68v-146.773c0-10.24 10.24-20.48 20.48-20.48s20.48 10.24 20.48 20.48v187.733c0 3.413 0 3.413 0 6.827-13.653 51.2-187.733 95.573-416.427 105.813zM512 738.133c34.133 0 64.853 27.307 64.853 64.853 0 34.133-27.307 64.853-64.853 64.853s-64.853-30.72-64.853-64.853c0-34.133 27.307-64.853 64.853-64.853z" />
<glyph unicode="&#xe91c;" glyph-name="pool" d="M447.147 854.187c-47.787 0-85.333-37.547-85.333-85.333v-228.693c-163.84-30.72-276.48-105.813-276.48-201.387 0-119.467 187.733-211.627 426.667-211.627s426.667 92.16 426.667 211.627c0 95.573-122.88 177.493-296.96 204.8v75.093c0 0 0 0 0 0s0 0 0 0v85.333c0 0 0 0 0 0s0 0 0 0v64.853c0 23.893 20.48 44.373 40.96 44.373 23.893 0 44.373-20.48 44.373-44.373 0-10.24 10.24-20.48 20.48-20.48s20.48 10.24 20.48 20.48c0 47.787-37.547 85.333-85.333 85.333s-85.333-37.547-85.333-85.333v-40.96h-191.147v40.96c0 23.893 20.48 44.373 44.373 44.373s44.373-20.48 44.373-44.373c0-10.24 10.24-20.48 20.48-20.48s20.48 10.24 20.48 20.48c-3.413 47.787-40.96 85.333-88.747 85.333zM406.187 683.52h191.147v-44.373h-191.147v44.373zM406.187 598.187h191.147v-47.787c-27.307 3.413-54.613 3.413-85.333 3.413-37.547 0-71.68-3.413-105.813-6.827v51.2zM512 512.853c30.72 0 58.027 0 85.333-3.413v-81.92c-34.133-3.413-68.267-23.893-85.333-34.133-20.48 13.653-64.853 40.96-105.813 34.133v78.507c34.133 3.413 68.267 6.827 105.813 6.827zM638.293 502.613c54.613-10.24 105.813-23.893 150.187-44.373 68.267-30.72 105.813-75.093 105.813-116.053s-37.547-85.333-105.813-116.053c-75.093-34.133-170.667-54.613-276.48-54.613s-204.8 20.48-276.48 54.613c-68.267 30.72-105.813 75.093-105.813 116.053s37.547 85.333 105.813 116.053c37.547 17.067 81.92 30.72 129.707 40.96v-92.16c-34.133-27.307-68.267-6.827-71.68-3.413-10.24 6.827-23.893 3.413-30.72-3.413-6.827-10.24-3.413-23.893 3.413-30.72 20.48-17.067 78.507-34.133 126.293 6.827 34.133 30.72 105.813-27.307 105.813-27.307s0 0 0 0 0 0 0 0 0 0 0 0 0 0 0 0 0 0 3.413 0c0 0 0 0 0 0s0 0 3.413 0c0 0 0 0 0 0s0 0 0 0 0 0 0 0 0 0 0 0 0 0 0 0 0 0 3.413 0c0 0 0 0 0 0s0 0 3.413 0c0 0 0 0 0 0s0 0 0 0 0 0 0 0 0 0 0 0 0 0 0 0 3.413 0 3.413 3.413c0 0 0 0 0 0s0 0 0 0 0 0 0 0 0 0 0 0c17.067 13.653 75.093 54.613 105.813 27.307 51.2-40.96 105.813-23.893 126.293-6.827 10.24 6.827 10.24 20.48 3.413 30.72s-20.48 10.24-30.72 3.413c-3.413-3.413-37.547-23.893-75.093 6.827-6.827 6.827-13.653 10.24-20.48 13.653v75.093zM20.48 338.773c-10.24 0-20.48-10.24-20.48-20.48 0-75.093 54.613-146.773 153.6-197.973 95.573-51.2 221.867-78.507 358.4-78.507s262.827 27.307 358.4 78.507c98.987 51.2 153.6 122.88 153.6 197.973 0 10.24-10.24 20.48-20.48 20.48s-20.48-10.24-20.48-20.48c0-58.027-47.787-116.053-133.12-160.427-88.747-47.787-208.213-71.68-337.92-71.68s-245.76 27.307-337.92 71.68c-85.333 44.373-133.12 102.4-133.12 160.427 3.413 13.653-6.827 20.48-20.48 20.48zM423.253 335.36c-20.48 0-40.96-3.413-58.027-20.48-34.133-30.72-68.267-3.413-71.68 0-10.24 6.827-23.893 6.827-30.72-3.413s-6.827-23.893 3.413-30.72c20.48-20.48 78.507-44.373 129.707 0 37.547 30.72 105.813-20.48 105.813-20.48s0 0 0 0 0 0 0 0 0 0 0 0 0 0 0 0 0 0 0 0 0 0 0 0 0 0 3.413 0c0 0 0 0 0 0s0 0 3.413 0c0 0 0 0 0 0s0 0 3.413 0c0 0 0 0 0 0s0 0 3.413 0c0 0 0 0 0 0s0 0 3.413 0c0 0 0 0 0 0s0 0 3.413 0c0 0 0 0 0 0s0 0 0 0 0 0 0 0 0 0 0 0 0 0 0 0 0 0 0 0 71.68 51.2 105.813 20.48c51.2-44.373 105.813-20.48 129.707 0 10.24 6.827 10.24 20.48 3.413 30.72s-20.48 10.24-30.72 3.413c0 0-37.547-30.72-71.68 0-51.2 40.96-119.467 6.827-146.773-10.24-17.067 10.24-54.613 30.72-88.747 30.72z" />
<glyph unicode="&#xe91d;" glyph-name="heating" d="M471.040 960c-3.413 0-6.827 0-10.24-3.413l-122.88-81.92c-10.24-6.827-13.653-20.48-6.827-27.307 3.413-6.827 10.24-10.24 17.067-10.24h64.853l37.547-167.253c3.413-10.24 10.24-17.067 20.48-17.067h20.48v-245.76h-102.4c-23.893 0-40.96-17.067-40.96-40.96v-324.267l-37.547-78.507c-3.413-10.24 0-23.893 10.24-27.307 0 0 3.413 0 6.827 0h368.64c10.24 0 20.48 10.24 20.48 20.48 0 3.413 0 6.827-3.413 10.24l-37.547 78.507v324.267c0 23.893-17.067 40.96-40.96 40.96h-102.4v242.347h20.48c10.24 0 17.067 6.827 20.48 17.067l37.547 167.253h64.853c10.24 0 20.48 10.24 20.48 20.48 0 6.827-3.413 13.653-10.24 17.067l-122.88 81.92c-3.413 3.413-6.827 3.413-10.24 3.413h-81.92zM477.867 919.040h68.267l61.44-40.96h-191.147l61.44 40.96zM453.973 837.12h112.64l-13.653-61.44c0 0 0 0-3.413 0h-81.92c0 0 0 0-3.413 0l-10.24 61.44zM477.867 734.72h68.267l-10.24-40.96h-20.48c-3.413 0-3.413 0-6.827 0h-20.48l-10.24 40.96zM389.12 366.080h119.467c3.413 0 3.413 0 6.827 0h119.467v-307.2h-245.76v307.2zM491.52 325.12c-10.24 0-20.48-10.24-20.48-20.48s10.24-20.48 20.48-20.48c0 0 0 0 0 0h40.96c10.24 0 20.48 10.24 20.48 20.48s-10.24 20.48-20.48 20.48c0 0 0 0 0 0h-40.96zM382.293 17.92h262.827l20.48-40.96h-303.787l20.48 40.96z" />
<glyph unicode="&#xe91e;" glyph-name="close" d="M512-64c-281.6 0-512 230.4-512 512s230.4 512 512 512c281.6 0 512-230.4 512-512s-230.4-512-512-512zM512 874.667c-234.667 0-426.667-192-426.667-426.667s192-426.667 426.667-426.667c234.667 0 426.667 192 426.667 426.667s-192 426.667-426.667 426.667zM371.2 264.533c-12.8 0-21.333 4.267-29.867 12.8-17.067 17.067-17.067 42.667 0 59.733l281.6 281.6c17.067 17.067 42.667 17.067 59.733 0s17.067-42.667 0-59.733l-281.6-281.6c-8.533-8.533-17.067-12.8-29.867-12.8zM652.8 264.533c-12.8 0-21.333 4.267-29.867 12.8l-281.6 281.6c-17.067 17.067-17.067 42.667 0 59.733s42.667 17.067 59.733 0l281.6-281.6c17.067-17.067 17.067-42.667 0-59.733-8.533-8.533-17.067-12.8-29.867-12.8z" />
<glyph unicode="&#xe91f;" glyph-name="check" d="M12.8 413.867c-8.533 8.533-12.8 21.333-12.8 34.133s4.267 25.6 12.8 34.133l72.533 72.533c12.8 12.8 25.6 21.333 38.4 21.333s25.6-4.267 38.4-17.067l221.867-226.133 482.133 482.133c8.533 8.533 21.333 17.067 34.133 17.067s25.6-4.267 34.133-17.067l72.533-72.533c12.8-8.533 17.067-21.333 17.067-38.4s-4.267-25.6-12.8-34.133l-593.067-588.8c-8.533-8.533-21.333-17.067-34.133-17.067s-25.6 4.267-34.133 17.067l-337.067 332.8z" />
<glyph unicode="&#xe920;" glyph-name="error" d="M512 960c93.867 0 179.2-21.333 256-68.267s140.8-106.667 187.733-187.733c46.933-76.8 68.267-162.133 68.267-256s-21.333-179.2-68.267-256c-46.933-76.8-106.667-140.8-187.733-187.733s-162.133-68.267-256-68.267-179.2 21.333-256 68.267-140.8 110.933-187.733 187.733-68.267 162.133-68.267 256 21.333 179.2 68.267 256 110.933 140.8 187.733 187.733 162.133 68.267 256 68.267zM763.733 315.733l-136.533 132.267 136.533 132.267c4.267 8.533 4.267 12.8 4.267 21.333 0 4.267 0 12.8-4.267 17.067l-81.067 81.067c-4.267 4.267-12.8 4.267-17.067 4.267-8.533 0-12.8 0-17.067-4.267l-136.533-136.533-132.267 136.533c-8.533 4.267-12.8 4.267-21.333 4.267-4.267 0-8.533 0-17.067-4.267l-81.067-81.067c-4.267-4.267-4.267-12.8-4.267-17.067 0-8.533 0-12.8 4.267-17.067l136.533-136.533-136.533-132.267c-4.267-8.533-4.267-12.8-4.267-21.333 0-4.267 0-12.8 4.267-17.067l81.067-81.067c4.267-4.267 12.8-4.267 17.067-4.267 8.533 0 12.8 0 17.067 4.267l132.267 136.533 132.267-136.533c4.267-4.267 12.8-4.267 17.067-4.267s12.8 0 17.067 4.267l81.067 81.067c4.267 4.267 4.267 8.533 4.267 17.067 8.533 8.533 8.533 12.8 4.267 21.333z" />
<glyph unicode="&#xe921;" glyph-name="eye-hidden" d="M512 59.733c-320 0-499.2 349.867-507.733 362.667s-8.533 34.133 0 46.933c59.733 106.667 132.267 196.267 226.133 268.8 25.6 17.067 55.467 12.8 72.533-8.533 17.067-25.6 12.8-55.467-8.533-72.533-76.8-55.467-136.533-128-183.467-209.067 42.667-72.533 187.733-285.867 401.067-285.867 76.8 0 153.6 25.6 217.6 76.8 21.333 17.067 55.467 12.8 72.533-8.533s12.8-55.467-8.533-72.533c-81.067-59.733-179.2-93.867-281.6-98.133zM883.2 264.533c-12.8 0-21.333 4.267-34.133 12.8-21.333 17.067-25.6 51.2-4.267 72.533 25.6 29.867 51.2 64 72.533 102.4-42.667 72.533-187.733 285.867-401.067 285.867-21.333 0-51.2-4.267-76.8-8.533-29.867-12.8-59.733 4.267-64 29.867-8.533 29.867 8.533 55.467 38.4 64s64 8.533 98.133 12.8c320 0 499.2-349.867 507.733-362.667s8.533-34.133 0-46.933c-25.6-51.2-59.733-98.133-98.133-140.8-8.533-17.067-25.6-21.333-38.4-21.333zM507.733 268.8c-46.933 0-85.333 17.067-119.467 46.933-34.133 34.133-55.467 76.8-55.467 123.733s17.067 93.867 46.933 128c4.267 0 4.267 4.267 8.533 8.533 21.333 17.067 51.2 17.067 72.533-4.267 17.067-21.333 17.067-51.2-4.267-72.533-17.067-17.067-25.6-38.4-21.333-55.467s8.533-38.4 25.6-51.2c12.8-12.8 34.133-21.333 55.467-21.333s38.4 8.533 51.2 25.6c21.333 21.333 51.2 21.333 72.533 4.267 21.333-21.333 21.333-51.2 4.267-72.533-34.133-34.133-76.8-55.467-123.733-55.467-8.533-4.267-8.533-4.267-12.8-4.267zM972.8-64c-12.8 0-25.6 4.267-34.133 17.067l-921.6 921.6c-21.333 21.333-21.333 51.2 0 72.533s51.2 21.333 72.533 0l917.333-925.867c21.333-21.333 21.333-51.2 0-72.533-8.533-8.533-21.333-12.8-34.133-12.8z" />
<glyph unicode="&#xe922;" glyph-name="eye-open" d="M512 59.733c-320 0-499.2 349.867-507.733 362.667s-8.533 29.867 0 46.933c8.533 17.067 187.733 366.933 507.733 366.933s499.2-349.867 507.733-362.667c8.533-12.8 8.533-29.867 0-46.933s-187.733-366.933-507.733-366.933zM110.933 448c42.667-72.533 187.733-285.867 401.067-285.867s358.4 213.333 401.067 285.867c-42.667 72.533-187.733 285.867-401.067 285.867s-358.4-213.333-401.067-285.867zM512 273.067c-98.133 0-174.933 81.067-174.933 174.933s76.8 174.933 174.933 174.933 174.933-81.067 174.933-174.933-76.8-174.933-174.933-174.933zM512 520.533c-42.667 0-72.533-34.133-72.533-72.533s34.133-72.533 72.533-72.533 72.533 34.133 72.533 72.533-29.867 72.533-72.533 72.533z" />
<glyph unicode="&#xe923;" glyph-name="bullet-check" d="M955.733 192c-46.933-76.8-106.667-140.8-187.733-187.733-76.8-46.933-162.133-68.267-256-68.267s-179.2 21.333-256 68.267c-76.8 46.933-140.8 106.667-187.733 187.733s-68.267 162.133-68.267 256 21.333 179.2 68.267 256 110.933 140.8 187.733 187.733 162.133 68.267 256 68.267 179.2-21.333 256-68.267 140.8-106.667 187.733-187.733 68.267-162.133 68.267-256-21.333-179.2-68.267-256zM832 558.933c8.533 4.267 8.533 12.8 8.533 21.333s-4.267 17.067-8.533 21.333l-46.933 46.933c-4.267 8.533-12.8 12.8-21.333 12.8s-17.067-4.267-25.6-8.533l-311.467-311.467-145.067 145.067c-8.533 8.533-12.8 8.533-25.6 8.533s-12.8-4.267-17.067-8.533l-46.933-46.933c-8.533-4.267-8.533-12.8-8.533-21.333s4.267-17.067 8.533-21.333l213.333-213.333c4.267-8.533 12.8-8.533 21.333-8.533s17.067 4.267 21.333 8.533l384 375.467z" />
<glyph unicode="&#xe924;" glyph-name="close-thin" d="M38.4-64c-8.533 0-21.333 4.267-29.867 12.8-17.067 17.067-17.067 38.4 0 55.467l947.2 942.933c17.067 17.067 38.4 17.067 55.467 0s17.067-38.4 0-55.467l-942.933-942.933c-8.533-8.533-17.067-12.8-29.867-12.8zM985.6-64c-8.533 0-21.333 4.267-29.867 12.8l-942.933 942.933c-17.067 17.067-17.067 38.4 0 55.467s38.4 17.067 55.467 0l947.2-947.2c17.067-17.067 17.067-38.4 0-55.467-12.8-4.267-21.333-8.533-29.867-8.533z" />
<glyph unicode="&#xe925;" glyph-name="filter" d="M827.733 631.467h145.067c29.867 0 51.2 21.333 51.2 51.2s-21.333 51.2-51.2 51.2h-145.067c-29.867 0-51.2-21.333-51.2-51.2 0-25.6 25.6-51.2 51.2-51.2zM315.733 733.867h-264.533c-29.867 0-51.2-21.333-51.2-51.2s21.333-51.2 51.2-51.2h264.533c29.867 0 51.2 21.333 51.2 51.2s-21.333 51.2-51.2 51.2zM196.267 264.533h-145.067c-29.867 0-51.2-21.333-51.2-51.2s21.333-51.2 51.2-51.2h145.067c29.867 0 51.2 21.333 51.2 51.2s-25.6 51.2-51.2 51.2zM972.8 264.533h-264.533c-29.867 0-51.2-21.333-51.2-51.2s21.333-51.2 51.2-51.2h264.533c29.867 0 51.2 21.333 51.2 51.2s-21.333 51.2-51.2 51.2zM379.733 405.333c-106.667 0-196.267-85.333-196.267-196.267s85.333-196.267 196.267-196.267 196.267 85.333 196.267 196.267-89.6 196.267-196.267 196.267zM379.733 119.467c-51.2 0-93.867 42.667-93.867 93.867s42.667 93.867 93.867 93.867 93.867-42.667 93.867-93.867-42.667-93.867-93.867-93.867zM644.267 878.933c-106.667 0-196.267-85.333-196.267-196.267s85.333-196.267 196.267-196.267 196.267 85.333 196.267 196.267-89.6 196.267-196.267 196.267zM644.267 593.067c-51.2 0-93.867 42.667-93.867 93.867s42.667 93.867 93.867 93.867c51.2 0 93.867-42.667 93.867-93.867s-42.667-93.867-93.867-93.867z" />
<glyph unicode="&#xe926;" glyph-name="sort" d="M477.867-17.067c0-4.267 0-4.267 0-8.533 0 0 0-4.267 4.267-4.267 0 0 0-4.267 4.267-4.267 4.267-8.533 12.8-12.8 17.067-17.067 0 0 4.267 0 4.267-4.267 0 0 4.267-4.267 4.267-4.267s4.267 0 8.533 0c0 0 4.267 0 4.267 0 8.533 0 17.067 0 25.6 0 0 0 4.267 0 4.267 0 4.267 0 4.267 0 8.533 0 0 0 4.267 0 4.267 4.267 0 0 4.267 0 4.267 4.267 4.267 4.267 8.533 4.267 8.533 8.533l234.667 234.667c25.6 25.6 25.6 64 0 89.6s-64 25.6-89.6 0l-128-128v742.4c0 34.133-29.867 64-64 64s-64-29.867-64-64v-896c0-4.267 0-8.533 0-12.8 8.533 0 8.533-4.267 8.533-4.267zM294.4 285.867l110.933-110.933c25.6-25.6 25.6-64 0-89.6v0c-25.6-25.6-64-25.6-89.6 0l-110.933 110.933c-25.6 25.6-25.6 64 0 89.6v0c25.6 25.6 64 25.6 89.6 0z" />
<glyph unicode="&#xe927;" glyph-name="delivery" d="M256 870.4c-140.8 0-256-115.2-256-256 0-55.467 17.067-102.4 46.933-145.067 0-4.267 0-8.533 0-8.533v-243.2c0-55.467 46.933-98.133 98.133-98.133h17.067c12.8-51.2 64-89.6 119.467-89.6s102.4 38.4 119.467 89.6h277.333c12.8-51.2 64-89.6 119.467-89.6s102.4 38.4 119.467 89.6h17.067c55.467 0 98.133 46.933 98.133 98.133v140.8c0 12.8-4.267 29.867-8.533 42.667 0 0 0 0 0 0l-64 149.333c-17.067 34.133-51.2 59.733-89.6 59.733h-145.067c-4.267 51.2-46.933 89.6-98.133 89.6h-110.933c-51.2 98.133-145.067 170.667-260.267 170.667zM256 802.133c106.667 0 187.733-85.333 187.733-187.733s-85.333-187.733-187.733-187.733-187.733 85.333-187.733 187.733 81.067 187.733 187.733 187.733zM256 759.467c-17.067 0-34.133-12.8-34.133-34.133v-110.933c0-8.533 4.267-17.067 8.533-25.6l42.667-42.667c12.8-12.8 34.133-12.8 46.933 0s12.8 34.133 0 46.933c0 0 0 0 0 0l-29.867 34.133v98.133c0 21.333-17.067 34.133-34.133 34.133 0 0 0 0 0 0zM512 627.2h102.4c17.067 0 34.133-12.8 34.133-34.133v-409.6h-251.733c-12.8 51.2-64 89.6-119.467 89.6s-102.4-38.4-119.467-89.6h-12.8c-17.067 0-34.133 12.8-34.133 34.133v187.733c42.667-29.867 89.6-46.933 145.067-46.933 140.8 0 256 115.2 256 256 0 4.267 0 8.533 0 12.8zM712.533 537.6h145.067c12.8 0 25.6-8.533 29.867-21.333l42.667-89.6h-217.6v110.933zM712.533 358.4h243.2c0 0 0 0 0-4.267v-140.8c0-17.067-12.8-34.133-34.133-34.133h-17.067c-12.8 51.2-64 89.6-119.467 89.6-29.867 0-55.467-12.8-76.8-29.867v119.467zM277.333 204.8c29.867 0 55.467-21.333 55.467-51.2 0 0 0-4.267 0-4.267 0-29.867-25.6-51.2-55.467-51.2s-55.467 21.333-55.467 51.2c0 0 0 4.267 0 4.267 4.267 25.6 25.6 51.2 55.467 51.2zM789.333 204.8c29.867 0 55.467-25.6 55.467-55.467s-25.6-55.467-55.467-55.467c-29.867 0-55.467 25.6-55.467 55.467s25.6 55.467 55.467 55.467z" />
<glyph unicode="&#xe928;" glyph-name="certificate" d="M516.267 930.133c-25.6 0-46.933-8.533-68.267-25.6l-21.333-21.333-29.867 8.533c-51.2 8.533-102.4-17.067-119.467-68.267l-8.533-29.867-29.867-8.533c-46.933-12.8-76.8-64-68.267-115.2l4.267-29.867-17.067-21.333c0 0 0 0 0 0-34.133-38.4-34.133-98.133 0-136.533l21.333-21.333-8.533-29.867c-8.533-34.133 4.267-68.267 29.867-93.867l-123.733-123.733c-12.8-12.8-12.8-34.133 0-46.933 4.267-4.267 8.533-8.533 12.8-8.533l132.267-42.667 34.133-123.733c4.267-17.067 25.6-29.867 42.667-21.333 4.267 0 8.533 4.267 12.8 8.533l187.733 187.733c0 0 4.267 4.267 4.267 4.267 4.267 0 12.8 0 17.067 0l192-192c12.8-12.8 34.133-12.8 46.933 0 4.267 4.267 8.533 8.533 8.533 12.8l34.133 123.733 132.267 42.667c17.067 4.267 25.6 25.6 21.333 42.667 0 4.267-4.267 8.533-8.533 12.8l-123.733 123.733c21.333 21.333 34.133 55.467 25.6 89.6l-4.267 29.867 21.333 21.333c34.133 38.4 34.133 98.133 0 136.533l-21.333 21.333 8.533 29.867c12.8 51.2-17.067 102.4-68.267 115.2l-29.867 8.533-8.533 29.867c-17.067 46.933-64 76.8-115.2 68.267l-29.867-4.267-21.333 21.333c0 0 0 0 0 0-17.067 17.067-42.667 25.6-64 25.6zM512 861.867c8.533 0 17.067-4.267 21.333-8.533l34.133-34.133c8.533-8.533 17.067-8.533 29.867-8.533l46.933 8.533c17.067 4.267 34.133-4.267 38.4-21.333l12.8-46.933c4.267-8.533 12.8-17.067 21.333-21.333l51.2-12.8c17.067-4.267 25.6-21.333 21.333-38.4l-8.533-46.933c-4.267-8.533 0-21.333 8.533-29.867l29.867-34.133c12.8-12.8 12.8-29.867 0-42.667l-34.133-34.133c-8.533-8.533-8.533-17.067-8.533-29.867l8.533-46.933c4.267-17.067-4.267-34.133-21.333-38.4 0 0-4.267 0-4.267 0l-42.667-12.8c-8.533-4.267-17.067-12.8-21.333-21.333l-12.8-46.933c-4.267-17.067-21.333-25.6-38.4-21.333l-46.933 8.533c-8.533 4.267-21.333 0-29.867-8.533l-34.133-29.867c0 0 0 0 0 0-12.8-12.8-29.867-12.8-42.667 0v0l-38.4 34.133c-8.533 8.533-17.067 8.533-29.867 8.533l-46.933-8.533c-17.067-4.267-34.133 4.267-38.4 21.333l-12.8 46.933c-4.267 8.533-12.8 17.067-21.333 17.067l-46.933 17.067c-17.067 4.267-25.6 21.333-21.333 38.4l8.533 46.933c4.267 8.533 0 21.333-8.533 29.867l-29.867 34.133c0 0 0 0 0 0-12.8 12.8-12.8 29.867 0 42.667v0l29.867 34.133c8.533 8.533 8.533 17.067 8.533 29.867l-4.267 46.933c-4.267 17.067 4.267 34.133 21.333 38.4l46.933 12.8c8.533 4.267 17.067 12.8 21.333 25.6l12.8 42.667c4.267 17.067 21.333 25.6 38.4 21.333l46.933-8.533c8.533-4.267 21.333 0 29.867 8.533l34.133 29.867c0 0 0 0 0 0 8.533 8.533 17.067 8.533 21.333 8.533zM648.533 640c-8.533 0-17.067-4.267-21.333-8.533l-149.333-149.333-76.8 72.533c-12.8 12.8-34.133 12.8-46.933 0s-12.8-34.133 0-46.933c0 0 0 0 0 0l98.133-98.133c12.8-12.8 34.133-12.8 46.933 0 0 0 0 0 0 0l174.933 174.933c12.8 12.8 12.8 34.133 0 46.933-8.533 4.267-17.067 8.533-25.6 8.533zM260.267 307.2v0l12.8-29.867c17.067-46.933 64-76.8 115.2-68.267l29.867 4.267 17.067-17.067-132.267-132.267-25.6 89.6c-4.267 12.8-12.8 21.333-21.333 21.333l-93.867 29.867 98.133 102.4zM763.733 302.933l98.133-98.133-93.867-29.867c-12.8-4.267-17.067-12.8-21.333-21.333l-25.6-89.6-136.533 136.533 17.067 12.8 29.867-8.533c51.2-12.8 102.4 17.067 115.2 68.267l8.533 29.867h8.533z" />
<glyph unicode="&#xe929;" glyph-name="pdf" d="M217.6 960c-64 0-115.2-51.2-115.2-115.2v-793.6c0-64 51.2-115.2 115.2-115.2h588.8c64 0 115.2 51.2 115.2 115.2v537.6c0 8.533-4.267 21.333-12.8 25.6v0l-332.8 332.8c-4.267 8.533-17.067 12.8-25.6 12.8h-332.8zM217.6 883.2h294.4v-217.6c0-64 51.2-115.2 115.2-115.2h217.6v-499.2c0-21.333-17.067-38.4-38.4-38.4h-588.8c-21.333 0-38.4 17.067-38.4 38.4v793.6c0 21.333 17.067 38.4 38.4 38.4zM588.8 827.733l200.533-200.533h-162.133c-21.333 0-38.4 17.067-38.4 38.4v162.133zM473.6 524.8c-34.133 0-64-29.867-64-64 0-42.667 21.333-93.867 51.2-140.8-8.533-25.6-17.067-51.2-25.6-72.533 0 0 0 0 0 0-64-25.6-110.933-55.467-136.533-76.8-12.8-12.8-21.333-29.867-21.333-46.933s4.267-34.133 17.067-46.933c17.067-8.533 34.133-12.8 51.2-12.8s34.133 8.533 42.667 17.067c12.8 12.8 25.6 25.6 42.667 51.2 12.8 21.333 29.867 46.933 42.667 76.8 21.333 8.533 46.933 12.8 72.533 21.333 38.4-34.133 85.333-59.733 132.267-59.733 34.133 0 64 29.867 64 64s-29.867 64-64 64c-42.667 0-81.067-4.267-119.467-12.8-8.533 8.533-17.067 12.8-25.6 21.333-4.267 8.533-8.533 17.067-12.8 21.333 12.8 42.667 17.067 85.333 17.067 132.267 0 34.133-29.867 64-64 64zM473.6 473.6c8.533 0 12.8-4.267 12.8-12.8 0-21.333-4.267-42.667-8.533-64-8.533 21.333-17.067 46.933-17.067 64 0 8.533 4.267 12.8 12.8 12.8zM499.2 268.8c0 0 0 0 0 0s0 0 0 0c-4.267 0 0 0 0 0zM678.4 243.2c8.533 0 12.8-4.267 12.8-12.8s-4.267-12.8-12.8-12.8c-17.067 0-38.4 8.533-59.733 21.333 21.333 0 38.4 4.267 59.733 4.267zM396.8 174.933c-4.267-4.267-4.267-8.533-8.533-12.8-12.8-21.333-25.6-34.133-29.867-38.4s-8.533-4.267-12.8-4.267c-4.267 0-8.533 0-8.533 4.267-4.267 4.267-4.267 4.267-4.267 8.533s0 8.533 4.267 8.533v0c8.533 4.267 29.867 17.067 59.733 34.133z" />
<glyph unicode="&#xe92a;" glyph-name="share" d="M836.267 960c-102.4 0-187.733-85.333-187.733-187.733 0-17.067 4.267-29.867 8.533-42.667l-324.267-166.4c-34.133 42.667-85.333 72.533-145.067 72.533-102.4 0-187.733-85.333-187.733-187.733s85.333-187.733 187.733-187.733c59.733 0 110.933 29.867 145.067 72.533l324.267-162.133c-4.267-12.8-8.533-29.867-8.533-42.667 0-102.4 85.333-187.733 187.733-187.733s187.733 85.333 187.733 187.733-85.333 187.733-187.733 187.733c-59.733 0-110.933-29.867-145.067-72.533l-324.267 162.133c4.267 12.8 8.533 29.867 8.533 42.667s-4.267 29.867-8.533 42.667l324.267 162.133c34.133-42.667 85.333-72.533 145.067-72.533 102.4 0 187.733 85.333 187.733 187.733s-85.333 192-187.733 192zM836.267 878.933c59.733 0 106.667-46.933 106.667-106.667s-46.933-106.667-106.667-106.667-106.667 46.933-106.667 106.667 46.933 106.667 106.667 106.667zM187.733 554.667c59.733 0 106.667-46.933 106.667-106.667s-46.933-106.667-106.667-106.667-106.667 46.933-106.667 106.667 46.933 106.667 106.667 106.667zM836.267 230.4c59.733 0 106.667-46.933 106.667-106.667s-46.933-106.667-106.667-106.667-106.667 46.933-106.667 106.667 46.933 106.667 106.667 106.667z" />
<glyph unicode="&#xe92b;" glyph-name="twitter" d="M921.6 631.467c0-93.867-21.333-187.733-68.267-277.333-46.933-93.867-115.2-170.667-200.533-226.133-93.867-64-204.8-93.867-324.267-93.867s-226.133 29.867-320 93.867c12.8 0 29.867 0 51.2 0 98.133 0 183.467 29.867 260.267 89.6-46.933 0-89.6 12.8-123.733 42.667-34.133 25.6-59.733 59.733-72.533 102.4 12.8 0 25.6 0 38.4 0 17.067 0 38.4 0 55.467 4.267-46.933 12.8-89.6 34.133-119.467 72.533-38.4 34.133-55.467 81.067-55.467 128v4.267c29.867-17.067 59.733-25.6 93.867-29.867-29.867 21.333-51.2 46.933-68.267 76.8s-25.6 64-25.6 102.4c0 38.4 8.533 72.533 29.867 106.667 51.2-64 115.2-119.467 192-157.867s153.6-59.733 238.933-64c-4.267 17.067-4.267 34.133-4.267 46.933 0 38.4 8.533 72.533 29.867 106.667 17.067 34.133 42.667 59.733 76.8 76.8s68.267 29.867 102.4 29.867c29.867 0 59.733-4.267 85.333-17.067s46.933-29.867 68.267-46.933c46.933 8.533 93.867 25.6 132.267 51.2-17.067-51.2-46.933-89.6-93.867-115.2 42.667 0 85.333 8.533 123.733 29.867-29.867-42.667-64-81.067-106.667-110.933 0-8.533 4.267-17.067 4.267-25.6z" />
<glyph unicode="&#xe92c;" glyph-name="mail" d="M878.933 29.867h-733.867c-81.067 0-145.067 64-145.067 145.067v550.4c0 81.067 64 145.067 145.067 145.067h733.867c81.067 0 145.067-64 145.067-145.067v-550.4c0-81.067-64-145.067-145.067-145.067zM145.067 763.733c-21.333 0-38.4-17.067-38.4-38.4v-550.4c0-21.333 17.067-38.4 38.4-38.4h733.867c21.333 0 38.4 17.067 38.4 38.4v550.4c0 21.333-17.067 38.4-38.4 38.4h-733.867zM512 349.867c-8.533 0-21.333 4.267-29.867 8.533l-460.8 324.267c-21.333 12.8-29.867 46.933-12.8 72.533s51.2 29.867 72.533 12.8l430.933-298.667 430.933 298.667c25.6 17.067 55.467 12.8 72.533-12.8s12.8-55.467-12.8-72.533l-460.8-320c-8.533-8.533-21.333-12.8-29.867-12.8z" />
<glyph unicode="&#xe92d;" glyph-name="share1" d="M763.733 187.733h-128c-25.6 0-51.2 21.333-51.2 51.2s21.333 51.2 51.2 51.2h128c89.6 0 162.133 72.533 162.133 162.133s-72.533 157.867-162.133 157.867h-128c-25.6 0-51.2 21.333-51.2 51.2s21.333 51.2 51.2 51.2h128c145.067 0 260.267-115.2 260.267-260.267s-115.2-264.533-260.267-264.533zM384 187.733h-128c-140.8 0-256 115.2-256 260.267s115.2 260.267 260.267 260.267h128c25.6 0 51.2-21.333 51.2-51.2s-25.6-46.933-55.467-46.933h-128c-85.333 0-157.867-72.533-157.867-162.133s72.533-162.133 162.133-162.133h128c25.6 0 51.2-21.333 51.2-51.2s-25.6-46.933-55.467-46.933zM678.4 396.8h-332.8c-25.6 0-51.2 21.333-51.2 51.2s21.333 51.2 51.2 51.2h337.067c25.6 0 51.2-21.333 51.2-51.2s-25.6-51.2-55.467-51.2z" />
<glyph unicode="&#xe92e;" glyph-name="update" d="M512 866.133c-140.8 0-264.533-68.267-341.333-179.2-12.8-12.8-8.533-34.133 8.533-46.933s38.4-8.533 46.933 8.533c64 89.6 166.4 149.333 285.867 149.333 187.733 0 341.333-149.333 349.867-332.8l-55.467 55.467c-8.533 8.533-17.067 8.533-25.6 8.533-21.333 0-34.133-17.067-34.133-34.133 0-8.533 4.267-17.067 8.533-25.6l106.667-106.667c12.8-12.8 34.133-12.8 51.2 0l8.533 8.533c4.267 0 4.267 4.267 8.533 8.533l89.6 89.6c12.8 12.8 12.8 34.133 0 51.2-12.8 12.8-34.133 12.8-51.2 0 0 0 0 0 0 0l-34.133-34.133c-25.6 213.333-204.8 379.733-422.4 379.733zM140.8 541.867c-8.533 0-17.067-4.267-25.6-8.533l-8.533-8.533c-4.267 0-4.267-4.267-8.533-8.533l-89.6-89.6c-12.8-12.8-12.8-34.133 0-51.2 12.8-12.8 34.133-12.8 51.2 0 0 0 0 0 0 0l34.133 34.133c17.067-213.333 196.267-384 418.133-384 140.8 0 264.533 68.267 341.333 179.2 12.8 17.067 8.533 38.4-8.533 46.933-17.067 12.8-38.4 8.533-46.933-8.533-64-89.6-166.4-149.333-285.867-149.333-187.733 0-341.333 149.333-349.867 332.8l55.467-55.467c17.067-8.533 38.4-8.533 51.2 4.267s12.8 34.133 0 51.2c0 0 0 0 0 0l-106.667 106.667c-4.267 4.267-12.8 8.533-21.333 8.533z" />
<glyph unicode="&#xe92f;" glyph-name="coupon" d="M140.8 989.867c-42.667 0-81.067-17.067-106.667-46.933s-34.133-64-34.133-98.133 12.8-68.267 34.133-98.133 64-42.667 106.667-42.667c29.867 0 59.733 8.533 81.067 25.6l85.333-68.267-85.333-68.267c-21.333 17.067-46.933 25.6-81.067 25.6-42.667 0-81.067-17.067-106.667-46.933-21.333-25.6-34.133-59.733-34.133-93.867s12.8-68.267 34.133-98.133 64-46.933 106.667-46.933 81.067 17.067 106.667 46.933 34.133 64 34.133 98.133c0 17.067-4.267 34.133-8.533 51.2l98.133 76.8 294.4-234.667c17.067-17.067 46.933-12.8 59.733 4.267 17.067 17.067 12.8 46.933-4.267 59.733 0 0 0 0 0 0l-277.333 226.133 281.6 221.867c17.067 12.8 21.333 42.667 8.533 59.733-12.8 12.8-25.6 17.067-38.4 17.067-8.533 0-17.067-4.267-25.6-8.533l-294.4-234.667-98.133 76.8c4.267 17.067 8.533 34.133 8.533 51.2 0 34.133-12.8 68.267-34.133 98.133s-64 46.933-110.933 46.933zM140.8 904.533c21.333 0 34.133-8.533 42.667-17.067s12.8-25.6 12.8-38.4c0-8.533-4.267-21.333-8.533-29.867 0-4.267-4.267-12.8-8.533-17.067-8.533-8.533-17.067-12.8-38.4-12.8s-34.133 8.533-42.667 17.067c-8.533 8.533-12.8 25.6-12.8 38.4s4.267 29.867 12.8 42.667 21.333 17.067 42.667 17.067zM695.467 704c-25.6 0-42.667-17.067-42.667-42.667s17.067-42.667 42.667-42.667v0c25.6 0 42.667 17.067 42.667 42.667s-17.067 42.667-42.667 42.667zM840.533 704c-25.6 0-42.667-17.067-42.667-42.667s17.067-42.667 42.667-42.667 42.667 17.067 42.667 42.667-21.333 42.667-42.667 42.667zM981.333 704c-25.6 0-42.667-17.067-42.667-42.667s17.067-42.667 42.667-42.667 42.667 17.067 42.667 42.667-17.067 42.667-42.667 42.667zM981.333 563.2c-25.6 0-42.667-17.067-42.667-42.667s17.067-42.667 42.667-42.667 42.667 17.067 42.667 42.667-17.067 42.667-42.667 42.667zM140.8 533.333c17.067 0 29.867-4.267 38.4-12.8 4.267-4.267 8.533-12.8 12.8-17.067 4.267-8.533 8.533-17.067 8.533-29.867 0-17.067-4.267-29.867-12.8-38.4s-21.333-17.067-42.667-17.067-34.133 8.533-42.667 17.067-17.067 25.6-17.067 42.667c0 17.067 4.267 29.867 12.8 38.4s21.333 17.067 42.667 17.067zM981.333 418.133c-25.6 0-42.667-17.067-42.667-42.667s17.067-42.667 42.667-42.667 42.667 17.067 42.667 42.667-17.067 42.667-42.667 42.667zM268.8 277.333c-25.6 0-42.667-17.067-42.667-42.667s17.067-42.667 42.667-42.667c25.6 0 42.667 17.067 42.667 42.667s-17.067 42.667-42.667 42.667zM981.333 277.333c-25.6 0-42.667-17.067-42.667-42.667s17.067-42.667 42.667-42.667 42.667 17.067 42.667 42.667-17.067 42.667-42.667 42.667zM268.8 136.533c-25.6 0-42.667-17.067-42.667-42.667s17.067-42.667 42.667-42.667c25.6 0 42.667 17.067 42.667 42.667s-17.067 42.667-42.667 42.667zM981.333 136.533c-25.6 0-42.667-17.067-42.667-42.667s17.067-42.667 42.667-42.667 42.667 17.067 42.667 42.667-17.067 42.667-42.667 42.667zM268.8-8.533c-25.6 0-42.667-17.067-42.667-42.667s17.067-42.667 42.667-42.667c25.6 0 42.667 17.067 42.667 42.667s-17.067 42.667-42.667 42.667zM413.867-8.533c-25.6 0-42.667-17.067-42.667-42.667s17.067-42.667 42.667-42.667 42.667 17.067 42.667 42.667-21.333 42.667-42.667 42.667zM554.667-8.533c-25.6 0-42.667-17.067-42.667-42.667s17.067-42.667 42.667-42.667 42.667 17.067 42.667 42.667-17.067 42.667-42.667 42.667zM695.467-8.533c-25.6 0-42.667-17.067-42.667-42.667s17.067-42.667 42.667-42.667v0c25.6 0 42.667 17.067 42.667 42.667s-17.067 42.667-42.667 42.667zM840.533-8.533c-25.6 0-42.667-17.067-42.667-42.667s17.067-42.667 42.667-42.667 42.667 17.067 42.667 42.667-21.333 42.667-42.667 42.667zM981.333-8.533c-25.6 0-42.667-17.067-42.667-42.667s17.067-42.667 42.667-42.667 42.667 17.067 42.667 42.667-17.067 42.667-42.667 42.667z" />
<glyph unicode="&#xe930;" glyph-name="content" d="M119.467 960c-64 0-119.467-55.467-119.467-119.467v-789.333c0-59.733 55.467-115.2 119.467-115.2h789.333c64 0 119.467 55.467 119.467 119.467v785.067c-4.267 64-59.733 119.467-123.733 119.467h-785.067zM119.467 883.2h789.333c21.333 0 38.4-17.067 38.4-38.4v-789.333c0-21.333-17.067-38.4-38.4-38.4h-789.333c-21.333 0-38.4 17.067-38.4 38.4v785.067c-4.267 25.6 12.8 42.667 38.4 42.667zM234.667 725.333v-76.8h550.4v76.8h-550.4zM473.6 567.467v-76.8h315.733v76.8h-315.733zM234.667 409.6v-76.8h550.4v76.8h-550.4zM473.6 251.733v-76.8h315.733v76.8h-315.733z" />
<glyph unicode="&#xe931;" glyph-name="arrow" d="M682.667 98.133c-4.267-4.267-12.8-8.533-21.333-8.533s-12.8 4.267-21.333 8.533c-4.267 4.267-8.533 12.8-8.533 21.333s4.267 12.8 8.533 21.333l285.867 285.867h-896c-8.533 0-12.8 4.267-21.333 8.533s-8.533 4.267-8.533 12.8 4.267 12.8 8.533 21.333 12.8 8.533 21.333 8.533h900.267l-285.867 285.867c-4.267 4.267-8.533 12.8-8.533 21.333s4.267 12.8 8.533 21.333c4.267 4.267 4.267 4.267 8.533 4.267s8.533 0 8.533 0 8.533 0 8.533 0 8.533-4.267 8.533-4.267l332.8-332.8c4.267-4.267 8.533-12.8 8.533-21.333s-4.267-12.8-8.533-21.333l-328.533-332.8z" />
<glyph unicode="&#xe932;" glyph-name="waze" d="M789.333 443.733c-4.267 0-8.533 4.267-12.8 4.267-12.8 0-25.6-8.533-29.867-17.067 0-4.267-34.133-72.533-123.733-72.533-93.867 0-123.733 72.533-123.733 72.533-8.533 17.067-25.6 21.333-42.667 17.067-17.067-8.533-21.333-25.6-17.067-42.667 0 0 51.2-110.933 183.467-110.933 128 0 179.2 110.933 183.467 110.933 8.533 12.8 0 34.133-17.067 38.4zM541.867 593.067c0-32.99-26.744-59.733-59.733-59.733s-59.733 26.744-59.733 59.733c0 32.99 26.744 59.733 59.733 59.733s59.733-26.744 59.733-59.733zM827.733 593.067c0-32.99-26.744-59.733-59.733-59.733s-59.733 26.744-59.733 59.733c0 32.99 26.744 59.733 59.733 59.733s59.733-26.744 59.733-59.733zM1015.467 499.2c0 256-204.8 460.8-452.267 460.8s-452.267-204.8-452.267-460.8c0-25.6 0-72.533-12.8-106.667-4.267-17.067-12.8-29.867-21.333-34.133-8.533-8.533-21.333-12.8-38.4-12.8s-29.867-12.8-29.867-29.867c0-4.267 0-8.533 4.267-12.8 42.667-102.4 110.933-170.667 204.8-213.333 0-8.533 0-17.067 0-21.333 0-34.133 12.8-68.267 34.133-89.6 25.6-25.6 59.733-42.667 98.133-42.667 64 0 115.2 42.667 128 102.4 29.867 0 59.733-4.267 89.6 0 12.8-59.733 68.267-102.4 128-102.4 72.533 0 132.267 59.733 132.267 132.267 0 17.067-4.267 34.133-8.533 51.2 123.733 85.333 196.267 226.133 196.267 379.733zM951.467 499.2c0-140.8-68.267-268.8-187.733-341.333-4.267 0-4.267-4.267-4.267-4.267-51.2-29.867-106.667-46.933-162.133-55.467-4.267 0-4.267 0-8.533 0-8.533 0-17.067 0-25.6 0-29.867 0-59.733 0-85.333 4.267-17.067 59.733-68.267 98.133-128 98.133-38.4 0-76.8-17.067-98.133-42.667-4.267-4.267-4.267-8.533-8.533-12.8-72.533 34.133-119.467 81.067-157.867 149.333 12.8 4.267 25.6 12.8 34.133 17.067 17.067 17.067 29.867 34.133 38.4 64 12.8 42.667 12.8 89.6 12.8 123.733v4.267c0 221.867 174.933 401.067 388.267 401.067s392.533-183.467 392.533-405.333zM281.6 89.6c4.267 4.267 4.267 8.533 4.267 12.8 4.267 4.267 4.267 12.8 8.533 12.8 12.8 12.8 29.867 21.333 55.467 21.333 38.4 0 72.533-34.133 72.533-72.533s-34.133-72.533-72.533-72.533c-21.333 0-42.667 8.533-55.467 21.333s-17.067 29.867-17.067 51.2c0 12.8 0 21.333 4.267 25.6zM768 68.267c0-38.4-34.133-72.533-72.533-72.533-29.867 0-55.467 17.067-68.267 46.933 46.933 8.533 93.867 21.333 136.533 42.667 4.267-4.267 4.267-8.533 4.267-17.067z" />
<glyph unicode="&#xe933;" glyph-name="location" d="M512-64c-8.533 0-17.067 4.267-25.6 8.533-12.8 8.533-401.067 273.067-401.067 588.8 0 234.667 192 426.667 426.667 426.667s426.667-192 426.667-426.667c0-315.733-388.267-580.267-401.067-588.8-8.533-4.267-17.067-8.533-25.6-8.533zM512 874.667c-187.733 0-341.333-153.6-341.333-341.333 0-230.4 260.267-443.733 341.333-503.467 81.067 59.733 341.333 273.067 341.333 503.467 0 187.733-153.6 341.333-341.333 341.333zM512 362.667c-93.867 0-170.667 76.8-170.667 170.667s76.8 170.667 170.667 170.667 170.667-76.8 170.667-170.667-76.8-170.667-170.667-170.667zM512 618.667c-46.933 0-85.333-38.4-85.333-85.333s38.4-85.333 85.333-85.333 85.333 38.4 85.333 85.333-38.4 85.333-85.333 85.333z" />
<glyph unicode="&#xe934;" glyph-name="calendar" d="M204.8 960v-102.4h-51.2c-56.889 0-102.4-45.511-102.4-102.4v-716.8c0-56.889 45.511-102.4 102.4-102.4h716.8c56.889 0 102.4 45.511 102.4 102.4v716.8c0 56.889-45.511 102.4-102.4 102.4h-51.2v102.4h-102.4v-102.4h-409.6v102.4h-102.4zM153.6 755.2h716.8v-102.4h-716.8v102.4zM153.6 550.4h716.8v-512h-716.8v512z" />
<glyph unicode="&#xe935;" glyph-name="attach" d="M341.333-64c-79.644 0-164.978 28.444-221.867 91.022-125.156 125.156-125.156 324.267 0 449.422l415.289 415.289c45.511 45.511 102.4 68.267 159.289 68.267 62.578 0 119.467-22.756 159.289-68.267 91.022-91.022 91.022-233.244 0-318.578l-415.289-415.289c-51.2-51.2-136.533-51.2-193.422 0-28.444 28.444-39.822 62.578-39.822 96.711s11.378 68.267 39.822 96.711l386.844 381.156c17.067 17.067 45.511 17.067 62.578 0s17.067-45.511 0-62.578l-386.844-386.844c-11.378-11.378-11.378-17.067-11.378-34.133s5.689-22.756 11.378-34.133c17.067-17.067 45.511-17.067 62.578 0l415.289 415.289c51.2 51.2 51.2 136.533 0 193.422-51.2 51.2-142.222 51.2-193.422 0l-409.6-409.6c-91.022-91.022-91.022-233.244 0-318.578 91.022-91.022 233.244-91.022 318.578 0l415.289 415.289c17.067 17.067 45.511 17.067 62.578 0s17.067-45.511 0-62.578l-409.6-420.978c-62.578-62.578-142.222-91.022-227.556-91.022z" />
<glyph unicode="&#xe936;" glyph-name="edit" d="M836.267 960c-51.2 0-96.711-17.067-130.844-56.889l-597.333-597.333c-11.378-11.378-17.067-22.756-22.756-39.822l-85.333-278.756c-5.689-22.756 5.689-45.511 28.444-51.2 5.689 0 17.067 0 22.756 0l278.756 79.644c0 0 0 0 0 0 17.067 5.689 28.444 11.378 39.822 22.756l597.333 597.333c73.956 73.956 73.956 193.422 0 267.378-34.133 39.822-85.333 56.889-130.844 56.889zM836.267 880.356c28.444 0 56.889-11.378 73.956-34.133 0 0 0 0 0 0 39.822-39.822 39.822-108.089 0-153.6l-51.2-51.2-153.6 153.6 51.2 51.2c22.756 22.756 51.2 34.133 79.644 34.133zM648.533 738.133l153.6-153.6-489.244-489.244c0 0-5.689 0-5.689-5.689l-210.489-62.578 62.578 210.489c0 0 0 0 0 0s0 5.689 5.689 5.689l483.556 494.933z" />
<glyph unicode="&#xe937;" glyph-name="delete" d="M512 988.444c-96.711 0-170.667-68.267-187.733-159.289h-182.044c0 0-5.689 0-5.689 0s-5.689 0-5.689 0h-91.022c-22.756-5.689-39.822-22.756-39.822-45.511s17.067-39.822 39.822-39.822c0 0 0 0 0 0h56.889l68.267-699.733c5.689-73.956 73.956-136.533 147.911-136.533h398.222c73.956 0 142.222 56.889 147.911 136.533l68.267 699.733h56.889c22.756 0 39.822 17.067 39.822 39.822s-17.067 39.822-39.822 39.822c0 0 0 0 0 0h-85.333c-5.689 0-11.378 0-11.378 0h-182.044c-22.756 91.022-96.711 164.978-193.422 164.978zM512 903.111c51.2 0 91.022-34.133 102.4-79.644h-204.8c11.378 45.511 51.2 79.644 102.4 79.644zM182.044 743.822h665.6l-68.267-694.044c-5.689-34.133-34.133-62.578-68.267-62.578h-398.222c-34.133 0-62.578 28.444-68.267 62.578l-62.578 694.044zM415.289 607.289c-22.756 0-39.822-17.067-39.822-39.822v-403.911c0-22.756 17.067-39.822 39.822-39.822s39.822 17.067 39.822 39.822c0 0 0 0 0 0v403.911c5.689 22.756-17.067 39.822-39.822 39.822 0 0 0 0 0 0zM603.022 607.289c-22.756 0-39.822-17.067-39.822-39.822v-403.911c0-22.756 17.067-39.822 39.822-39.822s39.822 17.067 39.822 39.822c0 0 0 0 0 0v403.911c5.689 22.756-11.378 39.822-39.822 39.822 5.689 0 5.689 0 0 0z" />
<glyph unicode="&#xe938;" glyph-name="add-circle" d="M512 960c-284.444 0-512-227.556-512-512s227.556-512 512-512 512 227.556 512 512-227.556 512-512 512zM512 880.356c238.933 0 432.356-193.422 432.356-438.044s-193.422-432.356-432.356-432.356-432.356 199.111-432.356 438.044 193.422 432.356 432.356 432.356zM512 704c-22.756 0-39.822-17.067-39.822-39.822v-176.356h-176.356c-22.756 0-39.822-17.067-39.822-39.822s17.067-39.822 39.822-39.822c0 0 0 0 0 0h176.356v-176.356c0-22.756 17.067-39.822 39.822-39.822s39.822 17.067 39.822 39.822c0 0 0 0 0 0v176.356h176.356c22.756 0 39.822 17.067 39.822 39.822s-17.067 39.822-39.822 39.822c0 0 0 0 0 0h-176.356v176.356c0 22.756-17.067 39.822-39.822 39.822 0 0 0 0 0 0z" />
<glyph unicode="&#xe939;" glyph-name="arrow-back-mobile" d="M950.044 374.044h-876.089c-39.822 0-73.956 34.133-73.956 73.956s34.133 73.956 73.956 73.956h876.089c39.822 0 73.956-34.133 73.956-73.956s-34.133-73.956-73.956-73.956zM512-64c-17.067 0-39.822 5.689-51.2 22.756-28.444 28.444-28.444 73.956 0 102.4l386.844 386.844-386.844 386.844c-28.444 28.444-28.444 73.956 0 102.4s73.956 28.444 102.4 0l438.044-438.044c28.444-28.444 28.444-73.956 0-102.4l-438.044-438.044c-11.378-17.067-34.133-22.756-51.2-22.756z" />
</font>
</defs>
</svg>
