<?xml version="1.0" encoding="utf-8"?>
<!-- Generator: Adobe Illustrator 24.3.0, SVG Export Plug-In . SVG Version: 6.00 Build 0)  -->
<svg version="1.1" id="Layer_1" xmlns="http://www.w3.org/2000/svg" xmlns:xlink="http://www.w3.org/1999/xlink" x="0px" y="0px"
	 viewBox="0 0 24 24" style="enable-background:new 0 0 24 24;" xml:space="preserve">
<style type="text/css">
	.st0{fill:#FFFFFF;}
	.st1{fill:none;}
</style>
<g>
	<path class="st0" d="M23.9,21.1l-3.4-8.6c-0.1-0.3-0.4-0.5-0.8-0.5h-4.6l-1,1.7h5l2.7,6.9H2.1l2.7-6.9h5l-1-1.7H4.3
		c-0.4,0-0.7,0.2-0.8,0.5l-3.4,8.6c-0.2,0.4,0,0.9,0.5,1.1c0.1,0,0.2,0.1,0.3,0.1h22.3c0.5,0,0.9-0.4,0.9-0.9
		C24,21.3,24,21.2,23.9,21.1z"/>
	<path class="st1" d="M12,13.8c0.4-0.6,0.7-1,1.4-2.2c0.5-0.9,1-1.9,1.4-2.8s0.6-1.7,0.6-2c0-1.9-1.5-3.4-3.4-3.4S8.6,5,8.6,6.9
		c0,0.3,0.2,1.1,0.6,2s0.9,1.8,1.4,2.8C11.3,12.8,11.6,13.2,12,13.8z M12,5.1c0.9,0,1.7,0.8,1.7,1.7S12.9,8.6,12,8.6
		s-1.7-0.8-1.7-1.7S11.1,5.1,12,5.1z"/>
	<circle class="st0" cx="12" cy="6.9" r="1.7"/>
	<path class="st0" d="M11.3,15.9l0.7,1l0.7-1c0,0,0.6-1,1.4-2.2l1-1.7c0.5-0.8,0.9-1.7,1.3-2.5c0.4-1,0.7-1.8,0.7-2.7
		c0-2.8-2.3-5.1-5.1-5.1S6.9,4,6.9,6.9c0,0.9,0.3,1.7,0.7,2.7C8,10.3,8.4,11.2,8.9,12l1,1.7C10.6,14.9,11.3,15.9,11.3,15.9z
		 M8.6,6.9c0-1.9,1.5-3.4,3.4-3.4s3.4,1.5,3.4,3.4c0,0.3-0.2,1.1-0.6,2s-0.9,1.8-1.4,2.8c-0.7,1.2-1,1.6-1.4,2.2
		c-0.4-0.6-0.7-1-1.4-2.2c-0.5-0.9-1-1.9-1.4-2.8S8.6,7.2,8.6,6.9z"/>
</g>
</svg>
