<?xml version="1.0" encoding="utf-8"?>
<!-- Generator: Adobe Illustrator 24.3.0, SVG Export Plug-In . SVG Version: 6.00 Build 0)  -->
<svg version="1.1" id="layer_1" xmlns="http://www.w3.org/2000/svg" xmlns:xlink="http://www.w3.org/1999/xlink" x="0px" y="0px"
	 viewBox="0 0 22 22" style="enable-background:new 0 0 22 22;" xml:space="preserve">
<path d="M11.1,0C10.5,0,10,0.2,9.5,0.6L9,1L8.3,0.9C7.2,0.6,6,1.3,5.7,2.4L5.4,3.1L4.8,3.3C3.7,3.6,3,4.8,3.2,5.9l0.1,0.7L2.9,7.1
	c0,0,0,0,0,0c-0.8,0.9-0.8,2.2,0,3.1l0.5,0.5l-0.1,0.7C3,12.2,3.3,13,3.8,13.5L1,16.4c-0.3,0.3-0.3,0.8,0,1.1
	c0.1,0.1,0.2,0.2,0.3,0.2l3,0.9l0.8,2.9c0.1,0.4,0.5,0.6,0.9,0.5c0.1,0,0.2-0.1,0.3-0.2l4.3-4.3c0,0,0-0.1,0.1-0.1
	c0.1,0,0.3,0,0.4,0l4.4,4.4c0.3,0.3,0.8,0.3,1.1,0c0.1-0.1,0.2-0.2,0.2-0.3l0.8-2.9l3-0.9c0.4-0.1,0.6-0.6,0.5-1
	c0-0.1-0.1-0.2-0.2-0.3l-2.8-2.8c0.5-0.5,0.8-1.3,0.6-2l-0.1-0.7l0.5-0.5c0.8-0.9,0.8-2.2,0-3.1l-0.5-0.5L18.8,6
	c0.3-1.1-0.4-2.3-1.5-2.7l-0.7-0.2l-0.2-0.7c-0.4-1.1-1.5-1.8-2.7-1.6l-0.7,0.1l-0.5-0.5c0,0,0,0,0,0C12.2,0.2,11.6,0,11.1,0z
	 M11,1.5c0.2,0,0.4,0.1,0.5,0.2l0.8,0.7c0.2,0.2,0.4,0.2,0.7,0.2l1.1-0.2c0.4-0.1,0.8,0.1,0.9,0.5l0.3,1c0.1,0.2,0.3,0.4,0.5,0.5
	l1,0.3c0.4,0.1,0.6,0.5,0.5,0.9l-0.2,1.1c-0.1,0.2,0,0.5,0.2,0.7L18,8.2c0.3,0.3,0.3,0.7,0,1L17.2,10c-0.2,0.2-0.2,0.4-0.2,0.7
	l0.2,1.1c0.1,0.4-0.1,0.7-0.5,0.9c0,0,0,0-0.1,0l-1,0.3c-0.2,0.1-0.4,0.3-0.5,0.5l-0.3,1c-0.1,0.4-0.5,0.6-0.9,0.5l-1.1-0.2
	c-0.2-0.1-0.5,0-0.7,0.2l-0.8,0.7c0,0,0,0,0,0c-0.3,0.3-0.7,0.3-1,0l0,0l-0.8-0.7c-0.2-0.2-0.4-0.2-0.7-0.2L7.9,15
	C7.5,15,7.2,14.8,7,14.5l-0.3-1c-0.1-0.2-0.3-0.4-0.5-0.5l-1-0.3c-0.4-0.1-0.6-0.5-0.5-0.9l0.2-1.1c0.1-0.2,0-0.5-0.2-0.7L4,9.2
	c0,0,0,0,0,0c-0.3-0.3-0.3-0.7,0-1l0,0l0.7-0.8C4.9,7.2,5,6.9,5,6.7L4.7,5.6v0C4.7,5.2,4.9,4.9,5.2,4.7l1-0.3
	c0.2-0.1,0.4-0.3,0.5-0.5l0.3-1C7.2,2.5,7.6,2.3,8,2.4l1.1,0.2c0.2,0.1,0.5,0,0.7-0.2l0.8-0.7c0,0,0,0,0,0C10.7,1.6,10.9,1.5,11,1.5
	z M14.1,6.6c-0.2,0-0.4,0.1-0.5,0.2l-3.4,3.4L8.4,8.5c-0.3-0.3-0.8-0.3-1.1,0S7,9.3,7.3,9.6c0,0,0,0,0,0l2.3,2.3
	c0.3,0.3,0.8,0.3,1.1,0c0,0,0,0,0,0l4-4c0.3-0.3,0.3-0.8,0-1.1C14.5,6.7,14.3,6.6,14.1,6.6z M5.3,14.2L5.3,14.2l0.3,0.7
	c0.4,1.1,1.5,1.8,2.7,1.6l0.7-0.1l0.4,0.4l-3.1,3.1l-0.6-2c-0.1-0.2-0.3-0.4-0.5-0.5L3,16.5L5.3,14.2z M16.8,14.3l2.3,2.3l-2.2,0.7
	c-0.2,0.1-0.4,0.3-0.5,0.5l-0.6,2l-3.1-3.1l0.3-0.3l0.7,0.1c1.1,0.3,2.3-0.4,2.7-1.5l0.2-0.7L16.8,14.3z"/>
</svg>
