<?xml version="1.0" encoding="utf-8"?>
<!-- Generator: Adobe Illustrator 26.0.3, SVG Export Plug-In . SVG Version: 6.00 Build 0)  -->
<svg version="1.1" id="Search" xmlns="http://www.w3.org/2000/svg" xmlns:xlink="http://www.w3.org/1999/xlink" x="0px" y="0px"
	 viewBox="0 0 20 20" style="enable-background:new 0 0 20 20;" xml:space="preserve">
<style type="text/css">
	.st0{fill:none;}
</style>
<g>
	<g>
		<path d="M17.7,11.7c-0.1,0-0.1,0-0.2,0h-1c-1.8,0-3.2,1.4-3.2,3.2v3.4c0,0.1,0,0.1,0,0.2l0,0.1l1.6-0.7v-3c0-0.9,0.7-1.6,1.6-1.6
			h1c0.1,0,0.1,0,0.2,0l0.1,0L17.7,11.7L17.7,11.7z"/>
		<path d="M3.5,11.6h-1c-0.1,0-0.1,0-0.2,0l-0.1,0l0,1.5l0.1,0c0.1,0,0.1,0,0.2,0h1c0.9,0,1.6,0.7,1.6,1.6v3l1.6,0.7v-3.7
			C6.7,13.1,5.2,11.6,3.5,11.6z"/>
	</g>
	<g>
		<path class="st0" d="M6.4,8.8h0.2V8.5c0-0.4,0.3-0.7,0.7-0.7c0,0,0,0,0,0c0.4,0,0.7,0.3,0.7,0.7v0.2h3.9V8.5
			c0-0.4,0.3-0.7,0.7-0.7c0,0,0,0,0,0c0.4,0,0.7,0.3,0.7,0.7v0.2h0.2c0.8,0,1.6-0.4,2.2-1.1s1-1.6,1-2.5c0-0.4-0.3-0.7-0.7-0.7H3.9
			c-0.4,0-0.7,0.3-0.7,0.7c0,0.9,0.4,1.8,1,2.5S5.5,8.8,6.4,8.8z"/>
	</g>
	<g>
		<path class="st0" d="M10.7,1.5H9.3C8.4,1.5,7.7,2.1,7.6,3h4.8C12.3,2.1,11.6,1.5,10.7,1.5z"/>
	</g>
	<g>
		<path class="st0" d="M18.1,12.9L18.1,12.9C18.1,12.9,18.1,12.9,18.1,12.9C18.1,12.9,18.1,12.9,18.1,12.9z"/>
	</g>
	<path d="M19.3,12.4c0-0.8-0.2-1.8-0.4-2.8c-0.2-0.7-0.5-1.7-1-2.4c0.3-0.7,0.5-1.4,0.5-2.1c0-1.2-1-2.2-2.2-2.2h-2.1
		C13.8,1.3,12.4,0,10.7,0H9.3c-1.6,0-3,1.3-3.2,2.9H3.9c-1.2,0-2.2,1-2.2,2.2c0,0.7,0.2,1.5,0.5,2.2C1.7,8,1.4,8.9,1.2,9.7
		c-0.3,1-0.4,2-0.4,2.8c0,1.8,0.7,3.6,1.9,5.1c1.3,1.6,3,2.5,4.7,2.5h5.3c1.7,0,3.4-0.9,4.7-2.5c1-1.2,1.6-2.8,1.8-4.3l0,0v-0.1
		l0-0.1l0,0c0,0,0-0.1,0-0.1c0,0,0,0,0-0.1C19.3,12.7,19.3,12.6,19.3,12.4z M9.3,1.6h1.5c0.8,0,1.4,0.5,1.6,1.3H7.7
		C7.8,2.1,8.5,1.6,9.3,1.6z M3.8,16.5c-0.8-1-1.3-2.2-1.5-3.4l0-1.4c0.1-0.5,0.2-1.1,0.3-1.6C2.8,9.7,3,9.2,3.2,8.8
		c0.9,1,2,1.5,3.2,1.5h0.2v0.2c0,0.4,0.3,0.8,0.8,0.8c0.2,0,0.4-0.1,0.6-0.2c0.2-0.1,0.2-0.3,0.2-0.6v-0.2h3.7v0.2
		c0,0.4,0.3,0.8,0.8,0.8c0,0,0,0,0,0c0.2,0,0.4-0.1,0.6-0.2c0.2-0.1,0.2-0.3,0.2-0.6v-0.2h0.2c1.2,0,2.3-0.5,3.2-1.5
		c0.2,0.4,0.4,0.8,0.5,1.3c0.1,0.5,0.3,1.1,0.3,1.7l0,1.4c-0.2,1.2-0.7,2.4-1.5,3.4c-0.4,0.5-0.8,0.9-1.3,1.2l-1.4,0.6
		c-0.3,0.1-0.5,0.1-0.7,0.1H7.3c-0.2,0-0.4,0-0.7-0.1l-1.4-0.6C4.7,17.4,4.2,17,3.8,16.5z M15.8,7.6c-0.6,0.7-1.4,1.1-2.1,1.1h-0.2
		V8.5c0-0.4-0.3-0.8-0.8-0.8c0,0,0,0,0,0c-0.4,0-0.8,0.4-0.8,0.8v0.2H8.1V8.5c0-0.4-0.3-0.8-0.8-0.8c0,0,0,0,0,0
		c-0.4,0-0.8,0.4-0.8,0.8v0.2H6.4c-0.8,0-1.5-0.4-2.1-1.1C3.6,6.9,3.3,6,3.3,5.2c0-0.4,0.3-0.7,0.7-0.7H16c0.4,0,0.7,0.3,0.7,0.7
		C16.7,6,16.4,6.9,15.8,7.6z"/>
</g>
</svg>
