<?xml version="1.0" encoding="utf-8"?>
<!-- Generator: Adobe Illustrator 24.3.0, SVG Export Plug-In . SVG Version: 6.00 Build 0)  -->
<svg version="1.1" id="Layer_1" xmlns="http://www.w3.org/2000/svg" xmlns:xlink="http://www.w3.org/1999/xlink" x="0px" y="0px"
	 viewBox="0 0 24 24" style="enable-background:new 0 0 24 24;" xml:space="preserve">
<style type="text/css">
	.st0{fill:none;}
	.st1{fill:#FFFFFF;}
</style>
<g>
	<path class="st0" d="M6.5,17.7c-0.7,0-1.3,0.5-1.3,1.2c0,0,0,0.1,0,0.1c0,0.7,0.6,1.2,1.3,1.2c0.7,0,1.3-0.5,1.3-1.2
		c0,0,0-0.1,0-0.1C7.8,18.3,7.2,17.7,6.5,17.7z"/>
	<path class="st0" d="M20.8,10.4c-0.1-0.3-0.4-0.5-0.7-0.5h-3.4v2.6h5.1L20.8,10.4z"/>
	<path class="st0" d="M6,14.1c-0.3,0-0.6,0-0.8-0.1c-0.1,0-0.1,0-0.2,0c-0.6-0.1-1.1-0.3-1.6-0.5c0,0,0,0,0,0
		c-0.3-0.1-0.5-0.3-0.7-0.4v4.4c0,0.4,0.3,0.8,0.8,0.8h0.4c0.3-1.2,1.5-2.1,2.8-2.1s2.4,0.9,2.8,2.1h5.9V9.1V8.6
		c0-0.4-0.3-0.8-0.8-0.8H12c0,0.1,0,0.2,0,0.3C12,11.4,9.3,14.1,6,14.1z"/>
	<path class="st0" d="M16.7,14.1v2.8c0.5-0.4,1.1-0.7,1.8-0.7c1.3,0,2.4,0.9,2.8,2.1h0.4c0.4,0,0.8-0.3,0.8-0.8v-3.3c0,0,0,0,0-0.1
		H16.7z"/>
	<path class="st0" d="M18.5,17.7c-0.7,0-1.3,0.6-1.3,1.3c0,0.7,0.6,1.3,1.3,1.3s1.3-0.6,1.3-1.3C19.8,18.3,19.3,17.7,18.5,17.7z"/>
	<path d="M11.3,5.4C11.4,5.4,11.4,5.4,11.3,5.4C11.4,5.4,11.4,5.4,11.3,5.4z"/>
	<path d="M10.9,4.6C10.9,4.6,10.9,4.6,10.9,4.6C10.9,4.6,10.9,4.6,10.9,4.6z"/>
	<path d="M8.8,2.8C8.8,2.8,8.8,2.8,8.8,2.8C8.8,2.8,8.8,2.8,8.8,2.8z"/>
	<path d="M3.3,13.5C3.4,13.5,3.4,13.5,3.3,13.5C3.4,13.5,3.4,13.5,3.3,13.5z"/>
	<path d="M5,14c0.1,0,0.1,0,0.2,0C5.1,14,5.1,14,5,14z"/>
	<path d="M9.5,3.3C9.6,3.3,9.6,3.3,9.5,3.3C9.6,3.3,9.6,3.3,9.5,3.3z"/>
	<path d="M0.1,9.1c0-0.1,0-0.1,0-0.2C0.1,9,0.1,9,0.1,9.1z"/>
	<path class="st1" d="M23.8,13.2C23.8,13.2,23.8,13.2,23.8,13.2l-1.5-3.5v0c-0.4-0.8-1.2-1.4-2.1-1.4h-3.4c-0.1-1.2-1.1-2.1-2.3-2.1
		h-2.6c0.2,0.5,0.2,1,0.3,1.6h2.4c0.4,0,0.8,0.3,0.8,0.8v0.5v9.1H9.3c-0.3-1.2-1.5-2.1-2.8-2.1s-2.4,0.9-2.8,2.1H3.4
		c-0.4,0-0.8-0.3-0.8-0.8V13c-0.6-0.4-1.1-0.9-1.5-1.5c0,0.1,0,0.2,0,0.2v5.7c0,1.3,1.1,2.3,2.3,2.3h0.4c0.3,1.2,1.5,2.1,2.8,2.1
		s2.4-0.9,2.8-2.1h6.5c0.3,1.2,1.5,2.1,2.8,2.1s2.4-0.9,2.8-2.1h0.4c1.3,0,2.3-1.1,2.3-2.3v-3.3C24,13.8,23.9,13.5,23.8,13.2z
		 M7.8,19.1c0,0.7-0.6,1.2-1.3,1.2c-0.7,0-1.3-0.5-1.3-1.2c0,0,0-0.1,0-0.1c0-0.7,0.6-1.2,1.3-1.2c0.7,0,1.3,0.5,1.3,1.2
		C7.8,19,7.8,19.1,7.8,19.1z M16.7,9.9h3.4c0.3,0,0.6,0.2,0.7,0.5l1,2.1h-5.1V9.9z M18.5,20.3c-0.7,0-1.3-0.6-1.3-1.3
		c0-0.7,0.6-1.3,1.3-1.3s1.3,0.6,1.3,1.3C19.8,19.8,19.3,20.3,18.5,20.3z M22.4,17.5c0,0.4-0.3,0.8-0.8,0.8h-0.4
		c-0.3-1.2-1.5-2.1-2.8-2.1c-0.7,0-1.3,0.3-1.8,0.7v-2.8h5.7c0,0,0,0,0,0.1V17.5z"/>
	<path d="M0.6,10.7C0.6,10.7,0.6,10.7,0.6,10.7C0.6,10.7,0.6,10.7,0.6,10.7z"/>
	<path class="st0" d="M0.1,8.9C0,8.7,0,8.4,0,8.1C0,8.4,0,8.7,0.1,8.9z"/>
	<path class="st0" d="M0.6,10.7c-0.3-0.5-0.4-1.1-0.5-1.6C0.2,9.7,0.4,10.2,0.6,10.7z"/>
	<path class="st0" d="M8.8,2.8C9,2.9,9.3,3.1,9.5,3.3C9.3,3.1,9,2.9,8.8,2.8z"/>
	<path class="st0" d="M8,2.4c0.3,0.1,0.6,0.2,0.8,0.3C8.5,2.6,8.2,2.5,8,2.4z"/>
	<path class="st0" d="M6,2.1c-3.3,0-6,2.7-6,6C0,4.8,2.7,2.1,6,2.1z"/>
	<path class="st0" d="M10.9,4.6c-0.4-0.5-0.8-0.9-1.3-1.3C10.1,3.7,10.5,4.1,10.9,4.6z"/>
	<path class="st0" d="M0.6,10.7c0.1,0.3,0.3,0.5,0.4,0.8c0,0,0,0,0,0C0.9,11.3,0.8,11,0.6,10.7z"/>
	<path class="st0" d="M6,12.5c2.5,0,4.4-2,4.4-4.4c0-2.5-2-4.4-4.4-4.4s-4.4,2-4.4,4.4C1.6,10.5,3.5,12.5,6,12.5z M5.2,5.5
		C5.2,5,5.6,4.7,6,4.7c0,0,0,0,0,0c0.4,0,0.8,0.4,0.8,0.8v2.3l0.8,0.8c0,0,0,0,0,0c0.3,0.3,0.3,0.8,0,1.1s-0.8,0.3-1.1,0l-1-1
		C5.3,8.5,5.2,8.3,5.2,8.1V5.5z"/>
	<path class="st0" d="M11.7,6.3c-0.1-0.3-0.2-0.6-0.4-0.9C11.5,5.7,11.6,6,11.7,6.3L11.7,6.3z"/>
	<path class="st0" d="M2.6,13L2.6,13c0.2,0.2,0.5,0.3,0.7,0.4C3.1,13.3,2.8,13.2,2.6,13z"/>
	<path class="st0" d="M10.9,4.6c0.2,0.2,0.3,0.5,0.5,0.8C11.2,5.1,11,4.8,10.9,4.6z"/>
	<path class="st0" d="M12,8.1c0-0.1,0-0.2,0-0.3h0C12,7.9,12,8,12,8.1z"/>
	<path class="st0" d="M3.4,13.5c0.5,0.2,1,0.4,1.6,0.5C4.4,13.9,3.9,13.7,3.4,13.5z"/>
	<path class="st0" d="M12,8.1c0,3.3-2.7,6-6,6C9.3,14.1,12,11.4,12,8.1z"/>
	<path class="st0" d="M5.2,14c0.3,0,0.6,0.1,0.8,0.1C5.7,14.1,5.4,14.1,5.2,14z"/>
	<path class="st1" d="M2.6,13L2.6,13c0.2,0.2,0.5,0.3,0.7,0.4c0,0,0,0,0,0c0.5,0.2,1,0.4,1.6,0.5c0.1,0,0.1,0,0.2,0
		c0.3,0,0.6,0.1,0.8,0.1c3.3,0,6-2.7,6-6c0-0.1,0-0.2,0-0.3h0c0-0.5-0.1-1.1-0.3-1.6h0c-0.1-0.3-0.2-0.6-0.3-0.9c0,0,0,0,0,0
		c-0.1-0.3-0.3-0.5-0.5-0.8c0,0,0,0,0,0c-0.4-0.5-0.8-0.9-1.3-1.3c0,0,0,0,0,0C9.3,3.1,9,2.9,8.8,2.8c0,0,0,0,0,0
		C8.5,2.6,8.2,2.5,8,2.4c0,0-0.1,0-0.1,0C7.6,2.3,7.3,2.2,7,2.2c-0.1,0-0.1,0-0.2,0C6.6,2.1,6.3,2.1,6,2.1c-3.3,0-6,2.7-6,6
		c0,0.3,0,0.6,0.1,0.8c0,0.1,0,0.1,0,0.2c0.1,0.6,0.3,1.1,0.5,1.6c0,0,0,0,0,0c0.1,0.3,0.3,0.5,0.4,0.8c0,0,0,0,0,0
		C1.5,12.1,2,12.6,2.6,13z M6,3.7c2.5,0,4.4,2,4.4,4.4c0,2.5-2,4.4-4.4,4.4s-4.4-2-4.4-4.4C1.6,5.6,3.5,3.7,6,3.7z"/>
	<path class="st1" d="M6.5,9.7c0.3,0.3,0.8,0.3,1.1,0s0.3-0.8,0-1.1c0,0,0,0,0,0L6.8,7.8V5.5C6.8,5,6.4,4.7,6,4.7c0,0,0,0,0,0
		C5.6,4.7,5.2,5,5.2,5.5v2.6c0,0.2,0.1,0.4,0.2,0.6L6.5,9.7z"/>
</g>
</svg>
