<?xml version="1.0" encoding="utf-8"?>
<!-- Generator: Adobe Illustrator 26.0.3, SVG Export Plug-In . SVG Version: 6.00 Build 0)  -->
<svg version="1.1" id="Layer_1" xmlns="http://www.w3.org/2000/svg" xmlns:xlink="http://www.w3.org/1999/xlink" x="0px" y="0px"
	 viewBox="0 0 24 24" style="enable-background:new 0 0 24 24;" xml:space="preserve">
<style type="text/css">
	.st0{fill:#44B64C;}
</style>
<g>
	<path d="M21.3,8.1L21.3,8.1l-7.8-7.8C13.4,0.1,13.1,0,12.9,0H5.1C3.6,0,2.4,1.2,2.4,2.7v18.6c0,1.5,1.2,2.7,2.7,2.7h13.8
		c1.5,0,2.7-1.2,2.7-2.7V8.7C21.6,8.5,21.5,8.2,21.3,8.1z M13.8,3.1l4.7,4.7h-3.8c-0.5,0-0.9-0.4-0.9-0.9V3.1z M19.8,21.3
		c0,0.5-0.4,0.9-0.9,0.9H5.1c-0.5,0-0.9-0.4-0.9-0.9V2.7c0-0.5,0.4-0.9,0.9-0.9H12v5.1c0,1.5,1.2,2.7,2.7,2.7h5.1V21.3z"/>
	<circle class="st0" cx="14.7" cy="12.9" r="1.5"/>
	<path class="st0" d="M8.1,12c-0.5,0-0.9,0.4-0.9,0.9c0,0.5,0.4,0.9,0.9,0.9c0,0,0,0,0,0h1.8c0.5,0,0.9-0.4,0.9-0.9
		c0-0.5-0.4-0.9-0.9-0.9c0,0,0,0,0,0H8.1z"/>
	<path class="st0" d="M15.2,16.3c-0.3,0-0.5,0.1-0.7,0.4C14,17.5,13,18,12,18s-2-0.5-2.6-1.3c-0.2-0.2-0.4-0.4-0.7-0.4
		c-0.5,0-0.9,0.4-0.9,0.9c0,0.2,0.1,0.4,0.2,0.6c0.9,1.2,2.4,2,4,2s3.1-0.8,4-2c0.3-0.4,0.3-1-0.1-1.3
		C15.7,16.4,15.5,16.3,15.2,16.3z"/>
</g>
</svg>
