<?xml version="1.0" encoding="utf-8"?>
<!-- Generator: Adobe Illustrator 26.0.3, SVG Export Plug-In . SVG Version: 6.00 Build 0)  -->
<svg version="1.1" id="Search" xmlns="http://www.w3.org/2000/svg" xmlns:xlink="http://www.w3.org/1999/xlink" x="0px" y="0px"
	 viewBox="0 0 20 20" style="enable-background:new 0 0 20 20;" xml:space="preserve">
<style type="text/css">
	.st0{fill:#111111;}
</style>
<g>
	<path class="st0" d="M18.4,3c-1.1-1.1-2.5-1.6-4-1.6c-1.4,0-2.9,0.5-4,1.6L10,3.5L9.5,3C8.4,1.9,7,1.3,5.5,1.3
		c-1.4,0-2.9,0.5-4,1.6c-2.2,2.2-2.1,5.8,0.1,8l0.4,0.4l6.8,6.8c0.6,0.6,1.6,0.6,2.2,0l6.8-6.8l0.4-0.4C20.5,8.8,20.6,5.2,18.4,3z
		 M18,7.2c-0.1,0.9-0.5,1.7-1.1,2.4L16.5,10L10,16.4L3.5,10L3.1,9.5C2.5,8.9,2,8.1,2,7.2c-0.1-1,0.3-2,1-2.8s1.7-1.1,2.8-1
		c0.9,0.1,1.7,0.5,2.4,1.1l0.4,0.4l0.7,0.7l1.1,1.1c0.4,0.4,1.1,0.4,1.5,0c0.4-0.4,0.4-1.1,0-1.5l-0.4-0.4L12,4.4
		c0.7-0.7,1.6-1,2.5-1s1.8,0.4,2.5,1C17.7,5.1,18.1,6.1,18,7.2z"/>
	<path class="st0" d="M6.7,10.9L4.9,9c-0.4-0.4-0.4-1,0-1.4l0,0c0.4-0.4,1-0.4,1.4,0l1.8,1.8c0.4,0.4,0.4,1,0,1.4l0,0
		C7.8,11.3,7.1,11.3,6.7,10.9z"/>
</g>
</svg>
