<?xml version="1.0" encoding="utf-8"?>
<!-- Generator: Adobe Illustrator 26.0.3, SVG Export Plug-In . SVG Version: 6.00 Build 0)  -->
<svg version="1.1" id="Search" xmlns="http://www.w3.org/2000/svg" xmlns:xlink="http://www.w3.org/1999/xlink" x="0px" y="0px"
	 viewBox="0 0 20 20" style="enable-background:new 0 0 20 20;" xml:space="preserve">
<style type="text/css">
	.st0{fill:#45B64D;}
</style>
<path d="M6.9,0C5.3,0,3.9,1.4,3.9,3.1c0,0,0,0,0,0c0,0.5,0.4,0.8,0.8,0.8c0.5,0,0.8-0.4,0.8-0.8c0-0.8,0.6-1.4,1.4-1.4h10
	c0.8,0,1.4,0.6,1.4,1.4v13.9c0,0.8-0.6,1.4-1.4,1.4h-10c-0.8,0-1.4-0.6-1.4-1.4c0,0,0,0,0,0c0-0.5-0.4-0.8-0.8-0.8
	c-0.5,0-0.8,0.4-0.8,0.8c0,1.7,1.4,3.1,3.1,3.1h10c1.7,0,3.1-1.4,3.1-3.1V3.1C20,1.4,18.6,0,16.9,0L6.9,0z"/>
<path class="st0" d="M4.1,5.5L0.2,9.4c-0.3,0.3-0.3,0.9,0,1.2l3.9,3.9c0,0,0,0,0,0c0.3,0.3,0.9,0.3,1.2,0c0.3-0.3,0.3-0.9,0-1.2
	l-2.5-2.5h11.9c0,0,0,0,0,0c0.5,0,0.8-0.4,0.8-0.8c0-0.5-0.4-0.8-0.8-0.8H2.8l2.5-2.5c0.2-0.2,0.3-0.4,0.3-0.6
	c0-0.5-0.4-0.8-0.8-0.8C4.5,5.3,4.3,5.4,4.1,5.5z"/>
</svg>
