<?xml version="1.0" encoding="utf-8"?>
<!-- Generator: Adobe Illustrator 24.3.0, SVG Export Plug-In . SVG Version: 6.00 Build 0)  -->
<svg version="1.1" id="Layer_1" xmlns="http://www.w3.org/2000/svg" xmlns:xlink="http://www.w3.org/1999/xlink" x="0px" y="0px"
	 viewBox="0 0 24 24" style="enable-background:new 0 0 24 24;" xml:space="preserve">
<style type="text/css">
	.st0{clip-path:url(#SVGID_1_);fill:#00C569;}
	.st1{clip-path:url(#SVGID_1_);fill:#111111;}
</style>
<g>
	<defs>
		<rect id="SVGID_3_" y="3.4" width="24" height="17.3"/>
	</defs>
	<clipPath id="SVGID_1_">
		<use xlink:href="#SVGID_3_"  style="overflow:visible;"/>
	</clipPath>
	<path class="st0" d="M12.4,14.7l5.3-4.3c0.6-0.4,0.7-1.1,0.4-1.7C17.7,8.2,17,8,16.4,8.4l-5.3,4.3c-0.6,0.4-0.7,1.1-0.4,1.7
		C11.1,14.9,11.8,15,12.4,14.7"/>
	<path class="st1" d="M12.4,12.7L7.1,8.4C6.5,8,5.8,8.2,5.5,8.8c-0.4,0.6-0.2,1.3,0.4,1.7l5.3,4.3c0.6,0.4,1.3,0.2,1.7-0.4
		C13.1,13.8,13,13,12.4,12.7"/>
	<path class="st1" d="M20.1,3.4H3.9C1.8,3.4,0,5.1,0,7.3v9.4c0,2.2,1.8,3.9,3.9,3.9h16.1c2.2,0,3.9-1.8,3.9-3.9V7.3
		C24,5.1,22.2,3.4,20.1,3.4 M21.6,16.7c0,0.9-0.7,1.5-1.5,1.5H3.9c-0.9,0-1.5-0.7-1.5-1.5V7.3c0-0.9,0.7-1.5,1.5-1.5h16.1
		c0.9,0,1.5,0.7,1.5,1.5V16.7z"/>
</g>
</svg>
