<?xml version="1.0" encoding="utf-8"?>
<!-- Generator: Adobe Illustrator 24.3.0, SVG Export Plug-In . SVG Version: 6.00 Build 0)  -->
<svg version="1.1" id="layer_1" xmlns="http://www.w3.org/2000/svg" xmlns:xlink="http://www.w3.org/1999/xlink" x="0px" y="0px"
	 viewBox="0 0 22 22" style="enable-background:new 0 0 22 22;" xml:space="preserve">
<style type="text/css">
	.st0{fill:none;}
	.st1{fill:#00C569;}
</style>
<g>
	<path class="st0" d="M15.9,13.4c0-0.3,0.3-0.6,0.6-0.6c0,0,0,0,0,0c0.3,0,0.6,0.3,0.6,0.6v1.2c0,0,0,0,0,0c0,0.3-0.3,0.6-0.6,0.6
		c-0.3,0-0.6-0.3-0.6-0.6V13.4z M13.4,13.4c0-0.3,0.3-0.6,0.6-0.6c0,0,0,0,0,0c0.3,0,0.6,0.3,0.6,0.6v1.2c0,0,0,0,0,0
		c0,0.3-0.3,0.6-0.6,0.6c-0.3,0-0.6-0.3-0.6-0.6V13.4z M17.1,17.7h-3.7c0,0,0,0,0,0c-0.3,0-0.6-0.3-0.6-0.6c0-0.3,0.3-0.6,0.6-0.6
		h3.7c0,0,0,0,0,0c0.3,0,0.6,0.3,0.6,0.6C17.7,17.5,17.4,17.7,17.1,17.7z"/>
	<path d="M16.5,15.3c0.3,0,0.6-0.3,0.6-0.6c0,0,0,0,0,0v-1.2c0-0.3-0.3-0.6-0.6-0.6c0,0,0,0,0,0c-0.3,0-0.6,0.3-0.6,0.6v1.2
		C15.9,15,16.2,15.3,16.5,15.3z"/>
	<path d="M14,15.3c0.3,0,0.6-0.3,0.6-0.6c0,0,0,0,0,0v-1.2c0-0.3-0.3-0.6-0.6-0.6c0,0,0,0,0,0c-0.3,0-0.6,0.3-0.6,0.6v1.2
		C13.4,15,13.7,15.3,14,15.3z"/>
	<path d="M17.1,16.5C17.1,16.5,17.1,16.5,17.1,16.5h-3.7c-0.3,0-0.6,0.3-0.6,0.6c0,0.3,0.3,0.6,0.6,0.6c0,0,0,0,0,0h3.7
		c0.3,0,0.6-0.3,0.6-0.6C17.7,16.8,17.5,16.5,17.1,16.5z"/>
	<path d="M21.1,0h-7.8c-0.1,0-0.2,0-0.3,0H9C9,0,8.9,0,8.8,0c0,0-0.1,0-0.1,0H0.9C0.4,0,0,0.4,0,0.9v17.7C0,20.5,1.5,22,3.4,22h15.3
		c1.8,0,3.4-1.5,3.4-3.4V0.9C22,0.4,21.6,0,21.1,0z M20.2,18.6c0,0.9-0.7,1.5-1.5,1.5H3.4c-0.9,0-1.5-0.7-1.5-1.5V1.8h6.1h1.8h2.4
		h1.8h0.6h5.5V18.6z"/>
	<path class="st0" d="M10.1,6.7h1.8c0.2,0,0.3-0.1,0.3-0.3V1.8H9.8v4.6C9.8,6.6,9.9,6.7,10.1,6.7z"/>
	<path class="st1" d="M10.1,8.6h1.8c1.2,0,2.1-1,2.1-2.1V1.8h-1.8v4.6c0,0.2-0.1,0.3-0.3,0.3h-1.8c-0.2,0-0.3-0.1-0.3-0.3V1.8H7.9
		v4.6C7.9,7.6,8.9,8.6,10.1,8.6z"/>
</g>
</svg>
