<?xml version="1.0" encoding="utf-8"?>
<!-- Generator: Adobe Illustrator 24.3.0, SVG Export Plug-In . SVG Version: 6.00 Build 0)  -->
<svg version="1.1" id="layer_1" xmlns="http://www.w3.org/2000/svg" xmlns:xlink="http://www.w3.org/1999/xlink" x="0px" y="0px"
	 viewBox="0 0 22 22" style="enable-background:new 0 0 22 22;" xml:space="preserve">
<path d="M11,0C8.6,0,6.6,2,6.6,4.4v2.2H4.7c-1.4,0-2.5,1.1-2.5,2.5v10.4c0,1.4,1.1,2.5,2.5,2.5h12.7c1.4,0,2.5-1.1,2.5-2.5V9.1
	c0-1.4-1.1-2.5-2.5-2.5h-1.9V4.4C15.4,2,13.4,0,11,0z M11,1.6c1.5,0,2.8,1.2,2.8,2.8v2.2H8.3V4.4C8.3,2.9,9.5,1.6,11,1.6z M4.7,8.3
	h12.7c0.5,0,0.8,0.4,0.8,0.8v10.4c0,0.5-0.4,0.8-0.8,0.8H4.7c-0.5,0-0.8-0.4-0.8-0.8V9.1C3.8,8.6,4.2,8.3,4.7,8.3z M7.2,13.2
	c-0.6,0-1.1,0.5-1.1,1.1c0,0.6,0.5,1.1,1.1,1.1s1.1-0.5,1.1-1.1C8.3,13.7,7.8,13.2,7.2,13.2z M11,13.2c-0.6,0-1.1,0.5-1.1,1.1
	c0,0.6,0.5,1.1,1.1,1.1s1.1-0.5,1.1-1.1C12.1,13.7,11.6,13.2,11,13.2z M14.9,13.2c-0.6,0-1.1,0.5-1.1,1.1c0,0.6,0.5,1.1,1.1,1.1
	c0.6,0,1.1-0.5,1.1-1.1C15.9,13.7,15.5,13.2,14.9,13.2z"/>
</svg>
