<?xml version="1.0" encoding="utf-8"?>
<!-- Generator: Adobe Illustrator 24.3.0, SVG Export Plug-In . SVG Version: 6.00 Build 0)  -->
<svg version="1.1" id="layer_1" xmlns="http://www.w3.org/2000/svg" xmlns:xlink="http://www.w3.org/1999/xlink" x="0px" y="0px"
	 viewBox="0 0 22 22" style="enable-background:new 0 0 22 22;" xml:space="preserve">
<style type="text/css">
	.st0{fill:#00C569;}
</style>
<path d="M17.3,6.6h-1.9V4.4C15.4,2,13.4,0,11,0C8.6,0,6.6,2,6.6,4.4v2.2H4.7c-1.4,0-2.5,1.1-2.5,2.5v10.4c0,1.4,1.1,2.5,2.5,2.5
	h12.6c1.4,0,2.5-1.1,2.5-2.5V9.1C19.8,7.7,18.7,6.6,17.3,6.6z M8.2,4.4c0-1.5,1.2-2.8,2.8-2.8s2.8,1.2,2.8,2.8v2.2H8.2V4.4z
	 M18.2,19.5c0,0.5-0.4,0.8-0.8,0.8H4.7c-0.5,0-0.8-0.4-0.8-0.8V9.1c0-0.5,0.4-0.8,0.8-0.8h12.6c0.5,0,0.8,0.4,0.8,0.8V19.5z"/>
<circle class="st0" cx="7.2" cy="14.3" r="1.1"/>
<circle class="st0" cx="11" cy="14.3" r="1.1"/>
<circle class="st0" cx="14.9" cy="14.3" r="1.1"/>
</svg>
