<?xml version="1.0" encoding="utf-8"?>
<!-- Generator: Adobe Illustrator 24.3.0, SVG Export Plug-In . SVG Version: 6.00 Build 0)  -->
<svg version="1.1" id="Layer_1" xmlns="http://www.w3.org/2000/svg" xmlns:xlink="http://www.w3.org/1999/xlink" x="0px" y="0px"
	 viewBox="0 0 24 24" style="enable-background:new 0 0 24 24;" xml:space="preserve">
<style type="text/css">
	.st0{fill:#44B64C;}
</style>
<g>
	<path class="st0" d="M22.3,6v8.8c0,2.4-1.9,4.3-4.3,4.3H3.4c0.7,1,1.8,1.7,3.1,1.7H18c3.3,0,6-2.7,6-6V9.1C24,7.8,23.3,6.7,22.3,6z
		"/>
	<path d="M18,3.1H3.1C1.4,3.1,0,4.6,0,6.3v8.6C0,16.6,1.4,18,3.1,18H18c1.7,0,3.1-1.4,3.1-3.1V6.3C21.1,4.6,19.7,3.1,18,3.1z
		 M19.4,14.9c0,0.8-0.6,1.4-1.4,1.4H3.1c-0.8,0-1.4-0.6-1.4-1.4v-6h17.7V14.9z M19.4,7.1H1.7V6.3c0-0.8,0.6-1.4,1.4-1.4H18
		c0.8,0,1.4,0.6,1.4,1.4V7.1z"/>
	<path d="M14,12.9c-0.5,0-0.9,0.4-0.9,0.8c0,0.5,0.4,0.9,0.8,0.9c0,0,0,0,0,0h2.9c0.5,0,0.9-0.4,0.9-0.8c0-0.5-0.4-0.9-0.8-0.9
		c0,0,0,0,0,0H14z"/>
</g>
</svg>
