<?xml version="1.0" encoding="utf-8"?>
<!-- Generator: Adobe Illustrator 24.3.0, SVG Export Plug-In . SVG Version: 6.00 Build 0)  -->
<svg version="1.1" id="layer_1" xmlns="http://www.w3.org/2000/svg" xmlns:xlink="http://www.w3.org/1999/xlink" x="0px" y="0px"
	 viewBox="0 0 22 22" style="enable-background:new 0 0 22 22;" xml:space="preserve">
<style type="text/css">
	.st0{fill:#111111;}
	.st1{fill:#45B64D;}
</style>
<g>
	<path class="st0" d="M21.3,18.5l-0.6-2.7c-0.3-1.4-1.2-2.7-2.4-3.4l-3.4-2.1c0.5-0.7,0.8-1.5,0.9-2.4l0.3-2.5
		c0.3-2.9-2-5.4-4.9-5.4h-0.5C7.8,0,5.6,2.5,5.9,5.4l0.3,2.5c0.1,0.9,0.4,1.7,0.9,2.4l-3.4,2.1c-1.2,0.8-2.1,2-2.4,3.4l-0.6,2.7
		c-0.4,1.8,1,3.5,2.8,3.5h14.9C20.3,22,21.6,20.3,21.3,18.5z M8.7,3.1c0.5-0.6,1.2-0.9,2-0.9h0.5c0.8,0,1.5,0.3,2,0.9
		C13.8,3.7,14,4.4,14,5.2l-0.3,2.5c-0.1,1.4-1.3,2.4-2.7,2.4s-2.5-1-2.7-2.4L8,5.2C8,4.4,8.2,3.7,8.7,3.1z M19,19.5
		c-0.1,0.1-0.2,0.3-0.5,0.3H3.5c-0.3,0-0.4-0.2-0.5-0.3c-0.1-0.1-0.2-0.3-0.1-0.6l0.6-2.7c0.2-0.8,0.7-1.6,1.4-2l4-2.5
		c0.6,0.3,1.4,0.5,2.1,0.5c0.8,0,1.5-0.2,2.1-0.5l4,2.5c0.7,0.4,1.2,1.2,1.4,2l0.6,2.7C19.2,19.3,19.1,19.5,19,19.5z"/>
	<path class="st1" d="M15.4,18h-2.7c-0.5,0-0.9-0.4-0.9-0.9v-0.5c0-0.5,0.4-0.9,0.9-0.9h2.7c0.5,0,0.9,0.4,0.9,0.9v0.5
		C16.3,17.7,15.9,18,15.4,18z"/>
</g>
</svg>
