<?xml version="1.0" encoding="utf-8"?>
<!-- Generator: Adobe Illustrator 24.3.0, SVG Export Plug-In . SVG Version: 6.00 Build 0)  -->
<svg version="1.1" id="Layer_1" xmlns="http://www.w3.org/2000/svg" xmlns:xlink="http://www.w3.org/1999/xlink" x="0px" y="0px"
	 viewBox="0 0 24 24" style="enable-background:new 0 0 24 24;" xml:space="preserve">
<style type="text/css">
	.st0{fill:#FFFFFF;}
</style>
<path class="st0" d="M9.9,0C8.5,0,7.4,1.1,7.2,2.4H5.1c-1.5,0-2.7,1.2-2.7,2.7v16.2c0,1.5,1.2,2.7,2.7,2.7h13.8
	c1.5,0,2.7-1.2,2.7-2.7V5.1c0-1.5-1.2-2.7-2.7-2.7h-2.1C16.6,1.1,15.5,0,14.1,0H9.9z M9.9,1.8h4.2c0.5,0,0.9,0.4,0.9,0.9
	s-0.4,0.9-0.9,0.9H9.9C9.4,3.6,9,3.2,9,2.7S9.4,1.8,9.9,1.8z M5.1,4.2h2.6C8.1,4.9,9,5.4,9.9,5.4h4.2c0.9,0,1.8-0.5,2.2-1.2h2.6
	c0.5,0,0.9,0.4,0.9,0.9v16.2c0,0.5-0.4,0.9-0.9,0.9H5.1c-0.5,0-0.9-0.4-0.9-0.9V5.1C4.2,4.6,4.6,4.2,5.1,4.2z M12,7.8
	c-0.9,0-1.7,0.4-2.2,1C9.2,9.3,9,10.1,9,10.8s0.2,1.5,0.8,2c0.5,0.6,1.3,1,2.2,1s1.7-0.4,2.2-1c0.5-0.6,0.8-1.3,0.8-2
	s-0.2-1.5-0.8-2C13.7,8.2,12.9,7.8,12,7.8z M12,9.6c0.5,0,0.7,0.1,0.9,0.4s0.3,0.5,0.3,0.8s-0.1,0.6-0.3,0.8
	C12.7,11.9,12.5,12,12,12s-0.7-0.1-0.9-0.4c-0.2-0.2-0.3-0.5-0.3-0.8s0.1-0.6,0.3-0.8S11.5,9.6,12,9.6z M8.6,15
	c-0.7,0-1.4,0.6-1.4,1.4v0.4c0,0.9,0.6,1.6,1.4,2.1c0.8,0.5,2,0.9,3.4,0.9s2.6-0.4,3.4-0.9s1.4-1.2,1.4-2.1v-0.4
	c0-0.7-0.6-1.4-1.4-1.4H12H8.6z M9,16.8h3h3c0-0.1-0.1,0.3-0.6,0.6C14,17.7,13.2,18,12,18s-2-0.3-2.4-0.6C9.1,17.1,9,16.7,9,16.8z"
	/>
</svg>
