<?xml version="1.0" encoding="utf-8"?>
<!-- Generator: Adobe Illustrator 26.0.3, SVG Export Plug-In . SVG Version: 6.00 Build 0)  -->
<svg version="1.1" id="Search" xmlns="http://www.w3.org/2000/svg" xmlns:xlink="http://www.w3.org/1999/xlink" x="0px" y="0px"
	 viewBox="0 0 20 20" style="enable-background:new 0 0 20 20;" xml:space="preserve">
<style type="text/css">
	.st0{fill:#111111;}
</style>
<g>
	<path class="st0" d="M19.7,18.3l-4.2-4.2c-0.4-0.4-1.1-0.4-1.6,0c-1.4,1.4-3.4,2.2-5.6,1.9C5,15.7,2.4,13.1,2,9.8
		C1.6,5.3,5.4,1.5,9.9,2.1c2.9,0.4,5.3,2.6,5.9,5.4c0.2,1.2,0.2,2.3-0.1,3.3c-0.1,0.4,0,0.8,0.4,1.1c0.6,0.4,1.4,0.1,1.6-0.6
		c0.3-1,0.4-2,0.3-3.1c-0.4-4.3-3.7-7.7-8-8.2C4.3-0.6-0.5,4.2,0,9.9C0.5,14.2,4,17.7,8.3,18c2.4,0.2,4.7-0.6,6.4-1.9l3.6,3.6
		c0.4,0.4,1,0.4,1.4,0v0C20.1,19.3,20.1,18.7,19.7,18.3z"/>
	<path class="st0" d="M12,12c-0.3-0.3-0.8-0.4-1.2-0.1c-0.5,0.3-1.1,0.5-1.8,0.5c-0.6,0-1.2-0.2-1.7-0.4c-0.4-0.2-0.8-0.2-1.2,0.1
		l-0.1,0.1c-0.5,0.4-0.4,1.2,0.2,1.5C7.1,14.2,8,14.4,9,14.4c1.1,0,2.1-0.3,2.9-0.8C12.4,13.3,12.5,12.5,12,12L12,12z"/>
</g>
</svg>
