<?xml version="1.0" encoding="utf-8"?>
<!-- Generator: Adobe Illustrator 26.0.3, SVG Export Plug-In . SVG Version: 6.00 Build 0)  -->
<svg version="1.1" id="Layer_1" xmlns="http://www.w3.org/2000/svg" xmlns:xlink="http://www.w3.org/1999/xlink" x="0px" y="0px"
	 viewBox="0 0 24 24" style="enable-background:new 0 0 24 24;" xml:space="preserve">
<style type="text/css">
	.st0{fill:#FFFFFF;}
</style>
<g>
	<path class="st0" d="M4.2,14.4C4.2,14.4,4.2,14.4,4.2,14.4C4.1,14.4,4.1,14.4,4.2,14.4z"/>
	<path class="st0" d="M20.4,9.9c0-0.9-0.2-1.7-0.4-2.2c0.8-0.5,1.2-1.5,0.8-2.4C19.3,2.2,16.1,0,11.7,0C8.8,0,6.5,0.8,4.9,2.3
		S2.4,6.1,2.4,8.7V11c-0.7,0.5-1.2,1.3-1.2,2.2c0,1.4,1,2.6,2.4,2.9c0.5,2.1,1.4,4,2.7,5.4C7.6,23,9.4,24,11.4,24
		c0.5,0,0.9-0.4,0.9-0.9c0-0.5-0.4-0.9-0.9-0.9c0,0,0,0,0,0c-1.4,0-2.7-0.7-3.8-1.9s-2-3.1-2.5-5.2c-0.1-0.4-0.5-0.7-0.9-0.7
		c0,0,0,0-0.1,0c0,0,0,0,0,0c-0.1,0-0.1,0,0,0c-0.7,0-1.2-0.5-1.2-1.2c0-0.5,0.3-0.9,0.7-1.1C4,12,4.2,11.7,4.2,11.3V8.7
		c0-2.2,0.7-3.9,1.9-5s3.1-1.9,5.6-1.9c3.8,0,6.3,1.7,7.5,4.3c0,0,0,0,0,0c-0.7,0.2-2.3,0.5-4.2,0.5c-2.3,0-3.8-0.4-4.7-0.8
		C9.3,5.4,9,5.1,9,5.1c-0.4-0.4-0.9-0.4-1.3,0C7.7,5.2,7.6,5.3,7.6,5.4c0,0-0.2,0.6-1.2,1.4C6,7.1,5.9,7.7,6.2,8
		c0.3,0.4,0.9,0.5,1.3,0.2c0,0,0,0,0,0C8,7.8,8.4,7.3,8.7,6.9C9,7.1,9,7.2,9.5,7.4c1.2,0.5,2.9,1,5.5,1c1.3,0,2.4-0.1,3.3-0.3
		c0.1,0.4,0.3,1,0.3,1.8v6c0,1.5-1.2,2.7-2.7,2.7h-1.1c-0.3-0.7-1.1-1.2-1.9-1.2c-1.2,0-2.1,0.9-2.1,2.1s0.9,2.1,2.1,2.1
		c0.8,0,1.5-0.5,1.9-1.2h1.1c2.4,0,4.3-1.9,4.5-4.2l0-6V9.9z"/>
	<circle class="st0" cx="8.4" cy="13.2" r="1.2"/>
	<circle class="st0" cx="14.4" cy="13.2" r="1.2"/>
	<path class="st0" d="M22.8,13.8v-1.2c0-1.3-1.1-2.4-2.4-2.4l0,6h0C21.7,16.2,22.8,15.1,22.8,13.8z"/>
</g>
</svg>
