<?xml version="1.0" encoding="utf-8"?>
<!-- Generator: Adobe Illustrator 24.3.0, SVG Export Plug-In . SVG Version: 6.00 Build 0)  -->
<svg version="1.1" id="layer_1" xmlns="http://www.w3.org/2000/svg" xmlns:xlink="http://www.w3.org/1999/xlink" x="0px" y="0px"
	 viewBox="0 0 22 22" style="enable-background:new 0 0 22 22;" xml:space="preserve">
<style type="text/css">
	.st0{fill:#00C569;}
</style>
<path class="st0" d="M15.5,0c-3.4,0-6.2,2.7-6.4,6.1L11.1,8c0-0.2,0.1-0.3,0-0.5C11,7.2,11,6.8,11,6.4c0-2.5,2.1-4.6,4.6-4.6
	c0.2,0,0.5,0,0.7,0.1l-2,2c-0.5,0.5-0.8,1.2-0.8,1.9s0.3,1.4,0.8,1.9c0.5,0.5,1.2,0.8,1.9,0.8c0.7,0,1.4-0.3,1.9-0.8l1.9-1.9
	c0,0.2,0,0.4,0,0.6c0,1.8-1.1,3.4-2.6,4.1l1.3,1.3c1.9-1.1,3.1-3.2,3.1-5.5c0-0.9-0.2-1.9-0.6-2.7c-0.1-0.3-0.4-0.5-0.7-0.5
	c-0.3-0.1-0.6,0-0.8,0.3l-3,3c-0.3,0.3-0.9,0.3-1.3,0c-0.2-0.2-0.3-0.4-0.3-0.6c0-0.2,0.1-0.5,0.3-0.6l3-3c0.2-0.2,0.3-0.5,0.3-0.8
	c0-0.3-0.2-0.5-0.5-0.7C17.4,0.2,16.5,0,15.5,0z"/>
<path class="st0" d="M6.9,9.9l-5.8,5.8C0.4,16.4,0,17.3,0,18.3s0.4,1.9,1.1,2.6c0.7,0.7,1.6,1.1,2.6,1.1h0c1,0,1.9-0.4,2.6-1.1
	l3.8-3.8l-0.2-0.2C9.5,16.4,9.2,16,9,15.6l-4,4c-0.3,0.4-0.8,0.5-1.3,0.5c-0.5,0-1-0.2-1.3-0.5c-0.4-0.3-0.5-0.8-0.5-1.3
	c0-0.5,0.2-1,0.5-1.3l5.8-5.8L6.9,9.9z"/>
<path d="M20.9,15.7L20.9,15.7l-4.8-4.9c0,0,0,0,0,0c-1.2-1.2-3-1.3-4.4-0.5L6.9,5.6c0.7-1,0.5-2.4-0.5-3.1L2.7,0.1
	C2.5,0,2.3,0,2.1,0C1.9,0,1.7,0.1,1.5,0.3L0.3,1.5C0,1.8-0.1,2.3,0.2,2.6l2.3,3.7c0.7,1.1,2.1,1.3,3.1,0.5l4.8,4.8
	C9.5,13,9.7,14.8,10.8,16h0l4.8,4.9c0,0,0,0,0,0c1.4,1.4,3.8,1.4,5.2,0C22.3,19.5,22.3,17.2,20.9,15.7z M5.4,4.5L4.5,5.4
	C4.4,5.5,4.2,5.5,4.1,5.3c0,0,0,0,0,0l-2-3.1l0.2-0.2l3.1,2c0,0,0,0,0,0C5.6,4.2,5.6,4.4,5.4,4.5z M19.6,19.6
	c-0.7,0.7-1.9,0.7-2.6,0l-4.8-4.9c0,0,0,0,0,0c-0.7-0.7-0.7-1.9,0-2.6c0.4-0.4,0.8-0.5,1.3-0.5s0.9,0.2,1.3,0.6l4.8,4.9c0,0,0,0,0,0
	C20.3,17.7,20.3,18.9,19.6,19.6z"/>
</svg>
