<?xml version="1.0" encoding="utf-8"?>
<!-- Generator: Adobe Illustrator 24.3.0, SVG Export Plug-In . SVG Version: 6.00 Build 0)  -->
<svg version="1.1" id="layer_1" xmlns="http://www.w3.org/2000/svg" xmlns:xlink="http://www.w3.org/1999/xlink" x="0px" y="0px"
	 viewBox="0 0 22 22" style="enable-background:new 0 0 22 22;" xml:space="preserve">
<style type="text/css">
	.st0{fill:none;}
	.st1{fill:#00C569;}
</style>
<path class="st0" d="M11,2.2c-0.1,0-0.1,0.1-0.1,0.1L8.3,8.3L1.9,8.8c0,0-0.1,0-0.1,0.1c0,0.1,0,0.1,0,0.2l4.9,4.2l-1.5,6.3
	c0,0,0,0.1,0.1,0.2c0.1,0.1,0.1,0,0.2,0l5.5-3.3L10.4,11l2-1l1.3-1.7l-2.5-5.9C11.1,2.3,11.1,2.2,11,2.2z"/>
<path d="M5.5,19.7c0,0-0.1,0.1-0.2,0c-0.1-0.1-0.1-0.1-0.1-0.2l1.5-6.3L1.8,9.1c0,0-0.1-0.1,0-0.2c0-0.1,0.1-0.1,0.1-0.1l6.4-0.5
	l2.5-5.9c0,0,0-0.1,0.1-0.1c0.1,0,0.1,0.1,0.1,0.1l2.5,5.9l1.2-1.7l-2.1-4.9c-0.3-0.7-1-1.2-1.8-1.2c0,0,0,0,0,0
	c-0.8,0-1.5,0.5-1.8,1.2L7.1,6.6L1.8,7C1,7.1,0.3,7.6,0.1,8.4c-0.2,0.7,0,1.6,0.6,2.1l4.1,3.5l-1.2,5.2c-0.2,0.8,0.1,1.6,0.8,2
	c0.3,0.2,0.7,0.4,1.1,0.4c0.3,0,0.7-0.1,1-0.3l4.6-2.8l0,0l0-2.1L5.5,19.7z"/>
<path class="st1" d="M17.7,21.2c0.6-0.5,0.9-1.3,0.8-2l-1.2-5.2l4.1-3.5c0.6-0.5,0.8-1.3,0.6-2.1C21.7,7.6,21,7.1,20.2,7l-5.3-0.5
	l-1.2,1.7l6.4,0.5c0,0,0.1,0,0.1,0.1c0,0.1,0,0.1,0,0.2l-4.9,4.2l1.5,6.3c0,0,0,0.1-0.1,0.2c-0.1,0.1-0.1,0-0.2,0L11,16.4l0,2.1
	l4.6,2.8C16.3,21.7,17.1,21.6,17.7,21.2z"/>
</svg>
