<?xml version="1.0" encoding="utf-8"?>
<!-- Generator: Adobe Illustrator 26.0.3, SVG Export Plug-In . SVG Version: 6.00 Build 0)  -->
<svg version="1.1" id="Search" xmlns="http://www.w3.org/2000/svg" xmlns:xlink="http://www.w3.org/1999/xlink" x="0px" y="0px"
	 viewBox="0 0 20 20" style="enable-background:new 0 0 20 20;" xml:space="preserve">
<style type="text/css">
	.st0{fill:#111111;}
</style>
<g>
	<path class="st0" d="M19.3,16.8l-0.5-2.4c-0.3-1.3-1.1-2.4-2.2-3.1l-3.1-1.9C14,8.8,14.3,8,14.4,7.2l0.2-2.3C15,2.3,12.9,0,10.2,0
		H9.8C7.1,0,5,2.3,5.3,4.9l0.2,2.3C5.7,8,6,8.8,6.4,9.4l-3.1,1.9c-1.1,0.7-1.9,1.8-2.2,3.1l-0.5,2.4C0.3,18.5,1.6,20,3.2,20h13.6
		C18.4,20,19.7,18.5,19.3,16.8z M7.9,2.8C8.4,2.3,9,2,9.8,2h0.5c0.7,0,1.4,0.3,1.8,0.8c0.5,0.5,0.7,1.2,0.6,1.9L12.4,7
		c-0.1,1.2-1.2,2.2-2.4,2.2S7.7,8.3,7.6,7L7.3,4.7C7.2,4,7.5,3.3,7.9,2.8z M17.3,17.8C17.2,17.9,17,18,16.8,18H3.2
		c-0.3,0-0.4-0.1-0.5-0.2c-0.1-0.1-0.2-0.3-0.1-0.5l0.5-2.4c0.2-0.8,0.6-1.4,1.3-1.8l3.7-2.3c0.6,0.3,1.2,0.4,1.9,0.4
		c0.7,0,1.4-0.2,1.9-0.4l3.7,2.3c0.7,0.4,1.1,1.1,1.3,1.8l0.5,2.4C17.4,17.5,17.3,17.7,17.3,17.8z"/>
	<path class="st0" d="M13.8,16.4h-2c-0.6,0-1-0.4-1-1v0c0-0.6,0.4-1,1-1h2c0.6,0,1,0.4,1,1v0C14.8,16,14.4,16.4,13.8,16.4z"/>
</g>
</svg>
